<?xml version="1.0" encoding="UTF-8"?> <svg xmlns="http://www.w3.org/2000/svg" viewBox="0 0 100 100"> <defs> <style>.a{fill:#d1f4bd;}.b{fill:#92bf43;}.c{fill:#abd15d;}.d{fill:#c0dd7a;}</style> </defs> <title>Green Tea Powder </title> <path class="a" d="M50,0a50,50,0,1,0,6.18,99.61C42.39,82.95,38.7,51.5,19,49.5c9.24-2.33,16.62-1.15,22.37,1.81-3.81-9-8.71-16.06-16.83-18.15,11.08-1.34,19.2,2,24.94,7.29C47.09,28.23,43.39,18,34.77,13.7,57.9,15,65.42,35.93,66.14,50.27c.69,13.87-.59,37,5,45A50,50,0,0,0,50,0Z"></path> <path class="b" d="M34.77,13.7C43.39,18,47.09,28.23,49.46,40.46c6.15,5.64,9.58,13.47,11,20C62.63,71,64.35,87.76,69,96.27q1.12-.46,2.22-1c-5.63-8-4.35-31.16-5-45C65.42,35.93,57.9,15,34.77,13.7Z"></path> <path class="c" d="M49.46,40.46c-5.74-5.27-13.86-8.64-24.94-7.29,8.11,2.09,13,9.15,16.83,18.15,8,4.14,12.85,11.77,15,18.29,2.62,7.91,5.3,20.07,9.3,27.89q1.68-.55,3.31-1.22c-4.61-8.51-6.33-25.3-8.54-35.79C59,53.92,55.61,46.1,49.46,40.46Z"></path> <path class="d" d="M41.34,51.31c-5.75-3-13.13-4.14-22.37-1.81,19.72,2,23.42,33.45,37.21,50.11a49.7,49.7,0,0,0,9.47-2.12c-4-7.82-6.67-20-9.3-27.89C54.19,63.08,49.37,55.45,41.34,51.31Z"></path> </svg> 