<?xml version="1.0" encoding="UTF-8"?> <svg xmlns="http://www.w3.org/2000/svg" viewBox="0 0 100 100"> <defs> <style>.a{fill:#d5eaca;}.b{fill:#493b28;}.c{fill:#705b3a;}.d{fill:#8c7557;}.e{fill:#f7eab5;}.f{fill:#fcfbf5;}.g{fill:#fff5cc;}.h{fill:#bec7f4;}</style> </defs> <title>Organic Coconut Water </title> <path class="a" d="M16.25,83.15c3.55,0,5.15-1.37,7.37-3.28l.2-.17c-6.52-3.32-11.71-9.5-13.63-15.41-1.21-4.06,7-10.1,18.42-13.48l.11,0C29.44,37.55,41.57,27,56.44,27c15.33,0,27.75,11.19,27.75,25S71.76,77,56.44,77a30.56,30.56,0,0,1-8.28-1.13,16.52,16.52,0,0,1-3.35,2.84c.48.39.94.77,1.37,1.15,2.22,1.9,3.82,3.28,7.37,3.28s5.16-1.37,7.37-3.28c2.45-2.1,5.51-4.72,11.28-4.72S81,77.77,83.48,79.87a12.89,12.89,0,0,0,4.33,2.82,50,50,0,1,0-76.32-.81A8.49,8.49,0,0,0,16.25,83.15Z"></path> <path class="b" d="M51.4,52C53.7,62.08,53,70.45,48.16,75.89A30.56,30.56,0,0,0,56.44,77c15.33,0,27.75-11.19,27.75-25S71.76,27,56.44,27c-14.87,0-27,10.53-27.72,23.76C40.05,47.42,50.2,48,51.4,52Z"></path> <path class="c" d="M44.81,78.73a16.52,16.52,0,0,0,3.35-2.84C53,70.45,53.7,62.08,51.4,52c1.21,4.06-7,10.1-18.42,13.48S11.4,68.35,10.19,64.29c1.92,5.91,7.11,12.1,13.63,15.41,2.42-2.07,5.46-4.55,11.08-4.55A14.8,14.8,0,0,1,44.81,78.73Z"></path> <path class="d" d="M33,65.5C44.37,62.11,52.61,56.08,51.4,52s-11.35-4.59-22.69-1.24l-.11,0C17.23,54.2,9,60.23,10.19,64.29S21.61,68.89,33,65.5ZM28.72,51.18c10.8-3.22,20.49-2.7,21.64,1.15s-6.68,9.58-17.48,12.8S12.38,67.83,11.24,64,17.92,54.4,28.72,51.18Z"></path> <path class="e" d="M32.88,65.13c10.8-3.22,18.63-8.95,17.48-12.8S39.53,48,28.72,51.18,10.09,60.13,11.24,64,22.07,68.35,32.88,65.13ZM29.18,52.72c9.79-2.92,18.45-2.85,19.35.15s-6.32,7.79-16.11,10.71S14,66.43,13.07,63.43,19.39,55.64,29.18,52.72Z"></path> <ellipse class="f" cx="30.8" cy="58.15" rx="18.5" ry="5.67" transform="translate(-15.32 11.21) rotate(-16.58)"></ellipse> <path class="g" d="M34.9,92.65a9,9,0,0,0-6.43,2.48A49.77,49.77,0,0,0,48.84,100a18.14,18.14,0,0,1-6.57-4C40.05,94,38.45,92.65,34.9,92.65Z"></path> <path class="g" d="M64.83,95.93A24.24,24.24,0,0,1,61,98.77a49.67,49.67,0,0,0,14.3-5.65,9.41,9.41,0,0,0-3.1-.47C68.65,92.65,67,94,64.83,95.93Z"></path> <path class="h" d="M72.2,86.9c-3.55,0-5.16,1.38-7.37,3.28-2.45,2.1-5.51,4.72-11.28,4.72s-8.83-2.62-11.28-4.72c-2.22-1.9-3.82-3.28-7.37-3.28s-5.15,1.37-7.37,3.28a26.13,26.13,0,0,1-3.42,2.6q2.11,1.28,4.36,2.36a9,9,0,0,1,6.43-2.48c3.55,0,5.15,1.38,7.37,3.28a18.14,18.14,0,0,0,6.57,4L50,100a50.12,50.12,0,0,0,11-1.23,24.24,24.24,0,0,0,3.83-2.84C67,94,68.65,92.65,72.2,92.65a9.41,9.41,0,0,1,3.1.47,50,50,0,0,0,4.36-2.87l-.08-.07C77.36,88.28,75.76,86.9,72.2,86.9Z"></path> <path class="g" d="M72.2,81.15c-3.55,0-5.16,1.38-7.37,3.28-2.45,2.1-5.51,4.72-11.28,4.72s-8.83-2.62-11.28-4.72c-2.22-1.9-3.82-3.28-7.37-3.28s-5.15,1.37-7.37,3.28-4.6,3.93-8.83,4.55a50.1,50.1,0,0,0,5.41,3.8,26.13,26.13,0,0,0,3.42-2.6c2.22-1.9,3.82-3.28,7.37-3.28s5.15,1.38,7.37,3.28c2.45,2.1,5.51,4.72,11.28,4.72s8.83-2.62,11.28-4.72c2.22-1.9,3.82-3.28,7.37-3.28s5.16,1.38,7.37,3.28l.08.07q1.92-1.42,3.69-3a24.45,24.45,0,0,1-3.78-2.81C77.36,82.53,75.76,81.15,72.2,81.15Z"></path> <path class="h" d="M72.2,75.15c-5.77,0-8.83,2.62-11.28,4.72-2.22,1.9-3.82,3.28-7.37,3.28s-5.15-1.37-7.37-3.28c-.43-.37-.89-.76-1.37-1.15a14.8,14.8,0,0,0-9.91-3.58c-5.62,0-8.66,2.48-11.08,4.55l-.2.17c-2.22,1.9-3.82,3.28-7.37,3.28a8.49,8.49,0,0,1-4.76-1.26A50.29,50.29,0,0,0,18.69,89c4.23-.61,6.75-2.76,8.83-4.55s3.82-3.28,7.37-3.28,5.15,1.38,7.37,3.28c2.45,2.1,5.51,4.72,11.28,4.72s8.83-2.62,11.28-4.72c2.22-1.9,3.82-3.28,7.37-3.28s5.16,1.38,7.37,3.28a24.45,24.45,0,0,0,3.78,2.81,50.28,50.28,0,0,0,4.46-4.55,12.89,12.89,0,0,1-4.33-2.82C81,77.77,78,75.15,72.2,75.15Z"></path> </svg> 