<?xml version="1.0" encoding="UTF-8"?> <svg xmlns="http://www.w3.org/2000/svg" viewBox="0 0 100 100"> <defs> <style>.a{fill:#f7f366;}.b{fill:#56a867;}.c{fill:#65ce80;}.d{fill:#4bb762;}</style> </defs> <title>Organic Aloe Vera Gel </title> <path class="a" d="M50,0A50,50,0,0,0,27.11,94.45C25.33,87.2,22.53,76,21.19,71.9,18.26,63,11.24,58.08,9.08,55.49c-1.6-1.92,0-5.58,8.16,1.06,5.87,4.78,12.11,16.58,16.41,29.35.56-23-1.13-45-4.12-51.49-3.64-7.94-11.13-8.54-9.42-9.73s6-1.19,13.06,5.16c4.77,4.29,7.34,21.28,9,41.25,2.44-26.6,9.1-50.28,13.48-55.61,6-7.3.64,7.09,0,15.89-.62,8.47-5.13,47-4.2,67.27,5.17-21.79,20.73-48.87,24.21-52.82s5.28-3.13,4.56-1.2S75.7,53.85,73,60.72c-.9,2.25-2.47,5.7-4.25,9.95,2.71-4.35,5.6-7.86,8.39-9.92,8.16-6,9.76-2.71,8.16-1-2.16,2.35-9.18,6.8-12.11,14.86-.91,2.51-2.51,8.05-4,13.4,3.38-6.13,7.87-9.84,13.59-10.73,9-1.4,2.89,3.44-1,4.19-3,.59-8.16,6.81-10.28,13.65A50,50,0,0,0,50,0Z"></path> <path class="b" d="M55.65,31.37c.64-8.8,6-23.19,0-15.89-4.38,5.33-11,29-13.48,55.61.77,9.2,1.34,19,1.85,28.53a50.43,50.43,0,0,0,6,.37l1.15,0c.1-.44.19-.88.3-1.33C50.52,78.41,55,39.85,55.65,31.37Z"></path> <path class="b" d="M73.15,74.65c2.93-8.06,10-12.51,12.11-14.86,1.6-1.74,0-5.05-8.16,1-2.8,2.06-5.68,5.57-8.39,9.92-3.22,7.69-7.11,18-8.83,28.35a49.61,49.61,0,0,0,5.45-1.42,47.31,47.31,0,0,1,3.83-9.55C70.64,82.7,72.23,77.15,73.15,74.65Z"></path> <path class="c" d="M73,60.72c2.74-6.87,6.54-14.17,7.26-16.09s-1-2.89-4.56,1.2-19,31-24.21,52.82c-.11.45-.2.89-.3,1.33a50.18,50.18,0,0,0,8.72-1c1.72-10.38,5.61-20.66,8.83-28.35C70.49,66.42,72.06,63,73,60.72Z"></path> <path class="d" d="M17.24,56.55c-8.16-6.64-9.76-3-8.16-1.06,2.16,2.6,9.18,7.51,12.11,16.41,1.34,4.05,4.14,15.3,5.91,22.54a49.68,49.68,0,0,0,6.09,2.65c.21-3.72.36-7.47.45-11.19C29.35,73.13,23.11,61.33,17.24,56.55Z"></path> <path class="c" d="M81.77,81.51c3.85-.75,10-5.58,1-4.19-5.71.89-10.21,4.6-13.59,10.73a47.31,47.31,0,0,0-3.83,9.55,49.65,49.65,0,0,0,6.17-2.45C73.61,88.31,78.76,82.09,81.77,81.51Z"></path> <path class="c" d="M33.17,29.85c-7.07-6.35-11.35-6.35-13.06-5.16s5.78,1.79,9.42,9.73c3,6.52,4.68,28.46,4.12,51.49-.09,3.72-.24,7.47-.45,11.19A49.7,49.7,0,0,0,44,99.63c-.51-9.51-1.08-19.34-1.85-28.53C40.51,51.13,37.94,34.14,33.17,29.85Z"></path> </svg> 