<?xml version="1.0" encoding="UTF-8"?> <!-- Generator: Adobe Illustrator 21.1.0, SVG Export Plug-In . SVG Version: 6.00 Build 0) --> <svg xmlns="http://www.w3.org/2000/svg" xmlns:xlink="http://www.w3.org/1999/xlink" id="Layer_1" x="0px" y="0px" viewBox="0 0 600 600" style="enable-background:new 0 0 600 600;" xml:space="preserve"> <style type="text/css"> .st0{enable-background:new ;} .st1{fill:#40C1AC;} .st2{fill:#C0EFAB;} .st3{fill:#358741;} .st4{fill:#84B74F;} </style> <title>17-09-25-LCO-Facebook-ProductLaunch-Joints-1</title> <text transform="matrix(1 0 0 1 -344.62 273.73)" class="st1" style="font-family:'Brown-Bold'; font-size:204.3px;">7</text> <text transform="matrix(1 0 0 1 -235.32 273.73)" class="st1" style="font-family:'Brown-Bold'; font-size:130px;">g</text> <circle class="st2" cx="300" cy="300" r="285.8"></circle> <g> <path class="st3" d="M210.9,230.4c-42.9-1.8-82.5-9-134,21C56.5,265.2,42.1,294,42.1,294c36,20.4,66.6,26.4,109.1,0 s40.2-35.4,59.7-40.2S210.9,230.4,210.9,230.4z"></path> <path class="st3" d="M389.1,230.4c42.9-1.8,82.5-9,134,21c20.4,13.8,34.8,42.6,34.8,42.6c-36,20.4-66.6,26.4-109.1,0 s-40.2-35.4-59.7-40.2S389.1,230.4,389.1,230.4z"></path> <path class="st3" d="M210.9,223.8c-27.1-1.6-70.3-4.8-72.7-54.4s33.6-64,33.6-64c-6.2,26.8-8.4,61.6,21,64.8s56,3.8,56,3.8 L210.9,223.8z"></path> <path class="st3" d="M389.1,223.8c27.1-1.6,70.3-4.8,72.7-54.4s-33.6-64-33.6-64c6.2,26.8,8.4,61.6-21,64.8s-56,3.8-56,3.8 L389.1,223.8z"></path> <path class="st3" d="M210.9,308.2c-4.4,47.4,5.7,90.2,34.5,159.6c7.6,24.9,28.4,45.3,54.6,45.3c69.8,0,89.1-144.4,89.1-204.9 L210.9,308.2L210.9,308.2z"></path> <path class="st4" d="M396.5,220.5c0-29.7-10.1-43.2-37.9-52.7c-21.3-6.6-35.6-6.9-58.6-6.6c-23-0.3-37.3,0-58.6,6.6 c-27.8,9.5-37.9,23-37.9,52.7c2.2,48,8.3,33,8.3,52.5s-6.4,17.3-6.4,29.4c0,14.4,8.4,24,26.4,27.2c10.7,1.9,14.6,3.8,16.2,10.1 l5,153h47h47l5-153c1.6-6.3,5.5-8.2,16.2-10.1c18-3.2,26.4-12.8,26.4-27.2c0-12-6.4-9.9-6.4-29.4S394.2,268.5,396.5,220.5z"></path> </g> </svg> 