<?xml version="1.0" encoding="UTF-8"?> <svg xmlns="http://www.w3.org/2000/svg" viewBox="0 0 100 100"> <defs> <style>.a{fill:#92d3f4;}.b{fill:#fff;}.c{fill:#7a8aed;}</style> </defs> <title>Sea Salt</title> <path class="a" d="M15.47,80.47c2.22,1.9,3.82,3.28,7.37,3.28s5.15-1.37,7.37-3.28c2.45-2.1,5.51-4.72,11.28-4.72s8.83,2.62,11.28,4.72c2.22,1.9,3.82,3.28,7.37,3.28s5.16-1.37,7.37-3.28C70,78.37,73,75.75,78.79,75.75c5.57,0,8.6,2.44,11,4.5A50,50,0,1,0,7.31,76C11.15,76.77,13.5,78.78,15.47,80.47Zm2.74-18.68c-1,0-1.5.12-1-2.31s3.09-1.77,4.17-1.28.56,1.9.29,2.43S19.2,61.84,18.21,61.79Zm4.74,8a.87.87,0,0,1-.87.16,1,1,0,0,1-.5-.95.86.86,0,0,1,.68-.79C23,68,23.11,69.54,23,69.75ZM25.6,62.7c-.37-.12-.58-.25-.29-.9,0,0,.21-.83.65-.66s.55.49.75.91S26,62.82,25.6,62.7Zm7.28,6.15c-.34.22-1.35.15-1.2-.65a.63.63,0,0,1,1-.28C33,68.23,33.22,68.63,32.88,68.85Zm-15-22.77a1.62,1.62,0,0,1,.86-.46c1.65-.35,3.08-2,4.31-2.72,3.35-1.91,4.33-3.48,7.13-6.69.48-.55,2.63-2.79,3.12-3.31,2.26-2.4,4.17-3.27,6.7-5.37,2.22-1.83,3.78-5.1,7-7,2.66-1.57,6.93-2.14,9.59-.88a11.81,11.81,0,0,1,4.77,5c.8,1.37,1.35,3,2.15,4.38.25.44,1.69,1.35,2,1.74,2.09,2.61,4.11,2.86,6.92,4.36C77,37.58,83,42.3,84.58,47.51c1.72,5.61-2.92,7-7.41,8.12-9.37,2.28-19,4.14-28.63,4.29a59.23,59.23,0,0,1-23.63-4.1,26.59,26.59,0,0,1-4.17-2.13l-.15-.06C18,52.26,15,47.79,17.84,46.08Zm-2.63,17a2,2,0,0,1,.8-.76,2.12,2.12,0,0,1,2,.76c.09.35-.16.8-.53,1.36S14.38,64.93,15.21,63.11Z"></path> <path class="a" d="M40.34,99.06a49.93,49.93,0,0,0,5,.72A8.84,8.84,0,0,0,41.49,99C41.08,99,40.7,99,40.34,99.06Z"></path> <path class="b" d="M20.59,53.63l.15.06a26.59,26.59,0,0,0,4.17,2.13,59.23,59.23,0,0,0,23.63,4.1c9.67-.14,19.26-2,28.63-4.29,4.48-1.09,9.13-2.51,7.41-8.12C83,42.3,77,37.58,72.43,35.14c-2.81-1.5-4.83-1.75-6.92-4.36-.31-.39-1.75-1.3-2-1.74-.8-1.41-1.35-3-2.15-4.38a11.81,11.81,0,0,0-4.77-5c-2.66-1.25-6.93-.68-9.59.88-3.24,1.91-4.81,5.18-7,7-2.54,2.1-4.45,3-6.7,5.37-.5.53-2.65,2.77-3.12,3.31C27.34,39.42,26.36,41,23,42.9c-1.23.7-2.66,2.37-4.31,2.72a1.62,1.62,0,0,0-.86.46C15,47.79,18,52.26,20.59,53.63Z"></path> <path class="b" d="M21.39,58.2c-1.07-.49-3.67-1.07-4.17,1.28s0,2.26,1,2.31,3.19-.62,3.46-1.15S22.46,58.7,21.39,58.2Z"></path> <path class="b" d="M26,61.13c-.44-.16-.65.66-.65.66-.29.66-.08.78.29.9s1.32-.25,1.11-.66S26.4,61.3,26,61.13Z"></path> <path class="b" d="M17.45,64.47c.37-.56.62-1,.53-1.36a2.12,2.12,0,0,0-2-.76,2,2,0,0,0-.8.76C14.38,64.93,17.08,65,17.45,64.47Z"></path> <path class="b" d="M31.68,68.2c-.15.81.86.87,1.2.65s.12-.62-.19-.93A.63.63,0,0,0,31.68,68.2Z"></path> <path class="b" d="M22.27,68.17a.86.86,0,0,0-.68.79,1,1,0,0,0,.5.95.87.87,0,0,0,.87-.16C23.11,69.54,23,68,22.27,68.17Z"></path> <path class="a" d="M41.49,93.25c-3.55,0-5.15,1.37-7.37,3.28l-.74.63a49.62,49.62,0,0,0,7,1.9c.36,0,.74-.06,1.15-.06a8.84,8.84,0,0,1,3.85.78c1.53.14,3.09.22,4.66.22,1.22,0,2.43-.06,3.63-.15a21.29,21.29,0,0,1-4.76-3.33C46.64,94.63,45,93.25,41.49,93.25Z"></path> <path class="c" d="M71.42,90.78C69,92.88,65.91,95.5,60.14,95.5s-8.83-2.62-11.28-4.72c-2.22-1.9-3.82-3.28-7.37-3.28s-5.15,1.37-7.37,3.28a18.37,18.37,0,0,1-6.4,4,49.66,49.66,0,0,0,5.66,2.4l.74-.63c2.22-1.9,3.82-3.28,7.37-3.28s5.15,1.38,7.37,3.28a21.29,21.29,0,0,0,4.76,3.33,49.76,49.76,0,0,0,28.7-11.72,9.07,9.07,0,0,0-3.53-.63C75.24,87.5,73.64,88.88,71.42,90.78Z"></path> <path class="a" d="M71.42,85c-2.45,2.1-5.51,4.72-11.28,4.72S51.31,87.13,48.86,85c-2.22-1.9-3.82-3.28-7.37-3.28S36.34,83.12,34.12,85c-2.45,2.1-5.51,4.72-11.28,4.72a16.16,16.16,0,0,1-3.67-.4,50,50,0,0,0,8.55,5.41,18.37,18.37,0,0,0,6.4-4c2.22-1.9,3.82-3.28,7.37-3.28s5.15,1.38,7.37,3.28c2.45,2.1,5.51,4.72,11.28,4.72S69,92.88,71.42,90.78c2.22-1.9,3.82-3.28,7.37-3.28a9.07,9.07,0,0,1,3.53.63q1.87-1.58,3.57-3.34c-2.08-1.78-3.7-3-7.1-3C75.24,81.75,73.64,83.13,71.42,85Z"></path> <path class="c" d="M67.51,80.47c-2.22,1.9-3.82,3.28-7.37,3.28S55,82.38,52.77,80.47c-2.45-2.1-5.51-4.72-11.28-4.72s-8.83,2.62-11.28,4.72c-2.22,1.9-3.82,3.28-7.37,3.28s-5.15-1.37-7.37-3.28c-2-1.69-4.33-3.71-8.16-4.44A50.25,50.25,0,0,0,19.17,89.35a16.16,16.16,0,0,0,3.67.4c5.77,0,8.83-2.62,11.28-4.72,2.22-1.9,3.82-3.28,7.37-3.28s5.15,1.38,7.37,3.28c2.45,2.1,5.51,4.72,11.28,4.72S69,87.13,71.42,85c2.22-1.9,3.82-3.28,7.37-3.28,3.4,0,5,1.27,7.1,3a50.24,50.24,0,0,0,3.92-4.55c-2.41-2.06-5.45-4.5-11-4.5C73,75.75,70,78.37,67.51,80.47Z"></path> </svg> 