<?xml version="1.0" encoding="UTF-8"?> <svg xmlns="http://www.w3.org/2000/svg" viewBox="0 0 100 100"> <defs> <style>.a{fill:#d1f4bd;}.b{fill:#2a9b75;}</style> </defs> <title>Sodium Phosphate </title> <circle class="a" cx="50" cy="50" r="50"></circle> <path class="b" d="M29.32,57.21a10.36,10.36,0,0,0,7.42,3.46c2.7,0,4.59-1.66,4.59-4,0-4-5.85-4.54-10.08-7-2.48-1.44-4.45-3.6-4.45-7.15,0-5.62,5.17-8.86,10.39-8.86a14.58,14.58,0,0,1,9.13,3l-3.15,4.5a8.43,8.43,0,0,0-5.44-2.07c-2.29,0-4.86,1-4.86,3.42,0,5.08,14.53,3.51,14.53,14.13,0,5.58-5,9.45-10.66,9.45a16.8,16.8,0,0,1-11.38-4.72Z"></path> <path class="b" d="M58.66,52.8V65.62H52.59V34.12H64.42c4,0,6.43,1,8.19,2.83a9.84,9.84,0,0,1,0,13c-1.71,1.8-4.14,2.79-8.19,2.79Zm5.49-5.4c2.07,0,3.1-.49,3.82-1.26a3.78,3.78,0,0,0,1-2.65,3.89,3.89,0,0,0-1-2.7c-.72-.76-1.75-1.26-3.82-1.26H58.66V47.4Z"></path> </svg> 