<?xml version="1.0" encoding="UTF-8"?> <svg xmlns="http://www.w3.org/2000/svg" viewBox="0 0 100 100"> <defs> <style>.a{fill:#f7eab5;}.b{fill:#69af0e;}.c{fill:#97c40c;}.d{fill:#f3f4c1;}.e{fill:#cecaab;}</style> </defs> <title>Monk Fruit </title> <circle class="a" cx="50" cy="50" r="50"></circle> <path class="b" d="M44.23,48.54A17.59,17.59,0,0,1,26.7,66.44c-9.18,0-16.62-7-16.62-15.65S18,33.56,27.15,33.56,44.23,39.9,44.23,48.54Z"></path> <path class="c" d="M68.39,55.18a19.86,19.86,0,0,1-19.8,20.22c-10.37,0-18.77-7.91-18.77-17.68S38.74,38.26,49.1,38.26,68.39,45.41,68.39,55.18Z"></path> <circle class="b" cx="68.39" cy="58.61" r="17.96"></circle> <circle class="d" cx="68.39" cy="58.61" r="15.42"></circle> <path class="e" d="M68.15,45c-4-.13-5.55,7.88,0,10.53C72.55,54.28,73.25,45.18,68.15,45Z"></path> <path class="e" d="M55.39,54.64c-1.37,3.79,5.78,7.71,10,3.25C65.56,53.31,57.12,49.84,55.39,54.64Z"></path> <path class="e" d="M60.6,69.75c3.18,2.47,9.12-3.11,6.19-8.52C62.48,59.66,56.57,66.62,60.6,69.75Z"></path> <path class="e" d="M76.58,69.46c3.34-2.26-.14-9.64-6.19-8.52C67.57,64.55,72.35,72.33,76.58,69.46Z"></path> <path class="e" d="M81.24,54.17c-1.12-3.87-9.21-2.85-10,3.25C73.79,61.23,82.66,59.08,81.24,54.17Z"></path> </svg> 