<?xml version="1.0" encoding="UTF-8"?> <svg xmlns="http://www.w3.org/2000/svg" viewBox="0 0 156.69 156.69"> <defs> <style>.cls-1{fill:#b8f4f1;}.cls-2{fill:#eddf5a;}.cls-3{fill:#ceb819;}.cls-4{fill:#f7a937;}.cls-5{fill:#f4ebba;}.cls-6{fill:#fff;}.cls-7{fill:#6cba52;}.cls-8{fill:#efaf11;}.cls-9{fill:#ce8d09;}</style> </defs> <title>natural-flavours</title> <g id="Layer_2" data-name="Layer 2"> <g id="Layer_1-2" data-name="Layer 1"> <path class="cls-1" d="M48.19,58.15A48.19,48.19,0,0,1,91.54,85.27c3.63-3.48,8.39-5.63,15.06-5.44A38.64,38.64,0,0,1,118.23,82c-2.54-11,2.29-30.17,14.61-36.82,5.77,5.11,9.59,17.16,8.81,27.5a24.93,24.93,0,0,1,15,4.27A78.34,78.34,0,1,0,1.58,94.08,48.21,48.21,0,0,1,48.19,58.15Z"></path> <path class="cls-2" d="M38,27c1.11,4.69-3.73,11-4.66,15.64h0C27,55,27.43,71.62,37,88.58c9.79,16.8,23.87,25.59,37.79,26.43h0c4.45,1.54,12.36.58,15.84,3.92,4.41,4.23,13.12,0,10.06-6-1.92-3.78,3.56-8.69,6.17-13.44h0c8.28-12.5,7.94-30.66-2.39-49.5C93.44,31.53,78,22,63,22.83h0c-5.42-.15-12.42,2.08-14.71-1.49C44.62,15.64,36.57,21,38,27Z"></path> <path class="cls-3" d="M45.89,59.7a1.5,1.5,0,0,0,0-3,1.5,1.5,0,0,0,0,3Z"></path> <path class="cls-1" d="M136.12,94.38a37,37,0,0,1,7,13l.11.38a42.79,42.79,0,0,1,1.69,11.8,78,78,0,0,0,11.73-41.23c0-.43,0-.84,0-1.27C154.43,84.71,145.85,94.62,136.12,94.38Z"></path> <path class="cls-4" d="M50.13,150.16v-40.6l22.57,13a21.22,21.22,0,0,0,2.23-3.19l-22.86-13.2L87.09,86c.49.94.94,1.91,1.37,2.89a25.06,25.06,0,0,1,3.08-3.61,48.2,48.2,0,0,0-90,8.8,77.65,77.65,0,0,0,2.76,10A43.7,43.7,0,0,1,9.29,86l35,20.22-30,17.3q1.13,1.59,2.33,3.13l29.57-17.07v40.25q3,1.34,6.06,2.43a13.8,13.8,0,0,1-.44-2.21C51.3,150.08,50.72,150.14,50.13,150.16Zm0-87.64a43.83,43.83,0,0,1,35,20.12l-35,20.21Zm-3.88,40.33-35-20.21a43.83,43.83,0,0,1,35-20.12Z"></path> <path class="cls-5" d="M50.13,150.16c.59,0,1.17-.08,1.75-.13-.82-7,3.36-14.91,8.74-19.37l-3.85-6.12A1.48,1.48,0,0,1,59.28,123l3.75,6c2.54-1.52,5.38-2.57,7.7-4.42a15.06,15.06,0,0,0,2-1.92l-22.57-13Z"></path> <path class="cls-5" d="M11.25,82.64l35,20.21V62.52A43.83,43.83,0,0,0,11.25,82.64Zm21.82-3.37a1.48,1.48,0,0,1,2,.61l3.71,6.93a1.48,1.48,0,0,1-.61,2,1.46,1.46,0,0,1-.7.18,1.48,1.48,0,0,1-1.31-.78l-3.71-6.93A1.48,1.48,0,0,1,33.07,79.28Z"></path> <path class="cls-5" d="M52.07,106.21l22.86,13.2c.62-1.06,1.2-2.15,1.71-3.26,3.94-8.58,6.39-19.61,11.82-27.26-.43-1-.88-1.95-1.37-2.89Zm21.27,1.62H64.06a1.48,1.48,0,1,1,0-3h9.27a1.48,1.48,0,1,1,0,3Z"></path> <path class="cls-5" d="M50.13,62.52v40.33l35-20.21A43.83,43.83,0,0,0,50.13,62.52ZM64.58,81.36l-4.27,6.93a1.48,1.48,0,0,1-2.53-1.56l4.27-6.93a1.48,1.48,0,1,1,2.53,1.56Z"></path> <path class="cls-5" d="M9.29,86a43.7,43.7,0,0,0-5,18.08,78.07,78.07,0,0,0,10,19.44l30-17.3Zm21.2,21.84H22.33a1.48,1.48,0,1,1,0-3h8.16a1.48,1.48,0,0,1,0,3Z"></path> <path class="cls-5" d="M16.68,126.64a78.59,78.59,0,0,0,29.57,23.17V109.57ZM35,133a1.48,1.48,0,1,1-2.52-1.58l4.51-7.2a1.48,1.48,0,1,1,2.52,1.58Z"></path> <path class="cls-6" d="M36.17,88.21a1.48,1.48,0,0,0,1.31.78,1.46,1.46,0,0,0,.7-.18,1.48,1.48,0,0,0,.61-2l-3.71-6.93a1.48,1.48,0,1,0-2.61,1.4Z"></path> <path class="cls-6" d="M64.1,79.32a1.48,1.48,0,0,0-2,.48l-4.27,6.93a1.48,1.48,0,0,0,2.53,1.56l4.27-6.93A1.49,1.49,0,0,0,64.1,79.32Z"></path> <path class="cls-6" d="M73.33,104.86H64.06a1.48,1.48,0,1,0,0,3h9.27a1.48,1.48,0,1,0,0-3Z"></path> <path class="cls-6" d="M30.49,104.86H22.33a1.48,1.48,0,1,0,0,3h8.16a1.48,1.48,0,0,0,0-3Z"></path> <path class="cls-6" d="M39.07,123.78a1.49,1.49,0,0,0-2,.47l-4.51,7.2A1.48,1.48,0,0,0,35,133l4.51-7.2A1.48,1.48,0,0,0,39.07,123.78Z"></path> <path class="cls-6" d="M57.24,122.5a1.48,1.48,0,0,0-.47,2l3.85,6.12A19.34,19.34,0,0,1,62.9,129l.13-.07-3.75-6A1.48,1.48,0,0,0,57.24,122.5Z"></path> <path class="cls-7" d="M141.65,72.68c.78-10.34-3-22.4-8.81-27.5C120.52,51.83,115.69,71,118.23,82a40.77,40.77,0,0,1,17.89,12.38c9.73.24,18.31-9.67,20.54-17.3,0,0,0-.08,0-.12A24.93,24.93,0,0,0,141.65,72.68Z"></path> <path class="cls-8" d="M143.16,107.4a37,37,0,0,0-7-13A40.77,40.77,0,0,0,118.23,82a38.64,38.64,0,0,0-11.63-2.17c-6.67-.18-11.43,2-15.06,5.44a25.06,25.06,0,0,0-3.08,3.61c-5.43,7.65-7.87,18.69-11.82,27.26-.51,1.11-1.09,2.2-1.71,3.26a21.22,21.22,0,0,1-2.23,3.19,15.06,15.06,0,0,1-2,1.92c-2.31,1.85-5.15,2.9-7.7,4.42l-.13.07a19.34,19.34,0,0,0-2.28,1.66C55.24,135.12,51.06,143,51.88,150a13.8,13.8,0,0,0,.44,2.21A78.36,78.36,0,0,0,145,119.58a42.79,42.79,0,0,0-1.69-11.8Z"></path> <path class="cls-3" d="M40.72,52a1.5,1.5,0,0,0,0-3,1.5,1.5,0,0,0,0,3Z"></path> <path class="cls-3" d="M42.72,43.2a1.5,1.5,0,0,0,0-3,1.5,1.5,0,0,0,0,3Z"></path> <path class="cls-3" d="M47.05,50a1.5,1.5,0,0,0,0-3,1.5,1.5,0,0,0,0,3Z"></path> <path class="cls-3" d="M57.55,54a1.5,1.5,0,0,0,0-3,1.5,1.5,0,0,0,0,3Z"></path> <path class="cls-3" d="M35.55,59.37a1.5,1.5,0,0,0,0-3,1.5,1.5,0,0,0,0,3Z"></path> <path class="cls-3" d="M36.39,47.2a1.5,1.5,0,0,0,0-3,1.5,1.5,0,0,0,0,3Z"></path> <path class="cls-3" d="M41.05,35.87a1.5,1.5,0,0,0,0-3,1.5,1.5,0,0,0,0,3Z"></path> <path class="cls-3" d="M56.89,44.7a1.5,1.5,0,0,0,0-3,1.5,1.5,0,0,0,0,3Z"></path> <path class="cls-3" d="M50.55,36.7a1.5,1.5,0,0,0,0-3,1.5,1.5,0,0,0,0,3Z"></path> <path class="cls-3" d="M62.22,33.2a1.5,1.5,0,0,0,0-3,1.5,1.5,0,0,0,0,3Z"></path> <path class="cls-3" d="M51.39,55.37a1.5,1.5,0,0,0,0-3,1.5,1.5,0,0,0,0,3Z"></path> <path class="cls-3" d="M33.22,54.37a1.5,1.5,0,0,0,0-3,1.5,1.5,0,0,0,0,3Z"></path> <path class="cls-3" d="M39.72,57a1.5,1.5,0,0,0,0-3,1.5,1.5,0,0,0,0,3Z"></path> <path class="cls-3" d="M37.05,41.2a1.5,1.5,0,0,0,0-3,1.5,1.5,0,0,0,0,3Z"></path> <path class="cls-3" d="M30.72,60.37a1.5,1.5,0,0,0,0-3,1.5,1.5,0,0,0,0,3Z"></path> <path class="cls-3" d="M41.72,27.87a1.5,1.5,0,0,0,0-3,1.5,1.5,0,0,0,0,3Z"></path> <path class="cls-9" d="M116.05,143.53a1.5,1.5,0,0,0,0-3,1.5,1.5,0,0,0,0,3Z"></path> <path class="cls-9" d="M123.22,139.87a1.5,1.5,0,0,0,0-3,1.5,1.5,0,0,0,0,3Z"></path> <path class="cls-9" d="M117.89,137.53a1.5,1.5,0,0,0,0-3,1.5,1.5,0,0,0,0,3Z"></path> <path class="cls-9" d="M126.89,136.53a1.5,1.5,0,0,0,0-3,1.5,1.5,0,0,0,0,3Z"></path> <path class="cls-9" d="M122.72,131.53a1.5,1.5,0,0,0,0-3,1.5,1.5,0,0,0,0,3Z"></path> <path class="cls-9" d="M132.22,133a1.5,1.5,0,0,0,0-3,1.5,1.5,0,0,0,0,3Z"></path> <path class="cls-9" d="M135.89,130.37a1.5,1.5,0,0,0,0-3,1.5,1.5,0,0,0,0,3Z"></path> <path class="cls-9" d="M129.05,127.87a1.5,1.5,0,0,0,0-3,1.5,1.5,0,0,0,0,3Z"></path> <path class="cls-9" d="M128.39,120.87a1.5,1.5,0,0,0,0-3,1.5,1.5,0,0,0,0,3Z"></path> <path class="cls-9" d="M122.89,121.87a1.5,1.5,0,0,0,0-3,1.5,1.5,0,0,0,0,3Z"></path> <path class="cls-9" d="M134.55,126a1.5,1.5,0,0,0,0-3,1.5,1.5,0,0,0,0,3Z"></path> <path class="cls-9" d="M139.89,124.53a1.5,1.5,0,0,0,0-3,1.5,1.5,0,0,0,0,3Z"></path> <path class="cls-9" d="M135.89,116a1.5,1.5,0,0,0,0-3,1.5,1.5,0,0,0,0,3Z"></path> <path class="cls-9" d="M137.39,107.87a1.5,1.5,0,0,0,0-3,1.5,1.5,0,0,0,0,3Z"></path> <path class="cls-9" d="M134.55,102.53a1.5,1.5,0,0,0,0-3,1.5,1.5,0,0,0,0,3Z"></path> <path class="cls-9" d="M127.89,98a1.5,1.5,0,0,0,0-3,1.5,1.5,0,0,0,0,3Z"></path> <path class="cls-9" d="M129.89,111.2a1.5,1.5,0,0,0,0-3,1.5,1.5,0,0,0,0,3Z"></path> <path class="cls-9" d="M142.05,117.7a1.5,1.5,0,0,0,0-3,1.5,1.5,0,0,0,0,3Z"></path> </g> </g> </svg> 