<?xml version="1.0" standalone="yes"?>
<svg xmlns="http://www.w3.org/2000/svg" width="654" height="654">
<path style="fill:#fef9f5; stroke:none;" d="M0 0L0 306L1 306C1 276.765 8.60626 246.42 18.3086 219C61.1965 97.7948 181.545 1 313 1L285 0L221 0L0 0z"/>
<path style="fill:#63bbb1; stroke:none;" d="M155 521C139.316 511.401 124.462 501.598 111.004 488.91C101.415 479.871 92.662 468.956 85.3549 458C77.7557 446.606 65.7789 429.26 66.054 415C66.2715 403.724 74.4709 394.531 82.0008 387.001C99.1619 369.84 121.83 357.508 144 348.001C153.548 343.906 163.212 340.173 173 336.692C176.891 335.309 183.437 334.703 186.258 331.487C190.714 326.405 190.091 310.831 191.884 304C196.625 285.949 204.428 269.349 215.025 254C262.532 185.195 358.664 159.26 436 188.425C498.744 212.087 552.146 270.84 550.545 341C550.169 357.478 547.318 373.38 541.997 389C539.763 395.556 531.953 406.177 532.302 412.907C532.567 418.018 546.196 424.729 550 427.805C567.017 441.566 595.846 476.049 565 491.623C559.452 494.424 553.007 496.023 547 497.525C538.779 499.58 530.41 501.914 522 503C525.307 508.195 532.198 511.564 537 515.4C549.188 525.135 559.922 535.866 575 541C593.831 516.013 611.554 491.616 624.691 463C654.802 397.415 661.724 321.078 645.116 251C636.363 214.071 621.009 178.78 600.305 147C502.012 -3.87207 292.511 -43.4924 144 55.5154C30.3554 131.279 -24.7911 276.955 9.88426 409C18.7094 442.606 32.438 474.795 51.3086 504C57.6578 513.826 64.2742 525.862 73.1705 533.61C95.6518 553.189 138.213 542.947 155 521z"/>
<path style="fill:#fef9f5; stroke:none;" d="M341 0L341 1C504 1 653 151.398 653 314L654 314L654 0L341 0z"/>
<path style="fill:#7c8e77; stroke:none;" d="M350 177L350 178L356 178L350 177z"/>
<path style="fill:#55452f; stroke:none;" d="M188 332C209.45 327.573 230.151 321.88 252 319.285C273.076 316.782 299.29 315.534 319 324.782C331.175 330.494 340.567 341.265 334.662 355C325.973 375.212 303.629 389.638 285 399.769C241.707 423.314 193.977 437.43 145 442.17C121.679 444.427 86.5451 445.941 70 426L69 426C79.3804 456.684 102.367 484.37 128 503.625C134.027 508.152 147.044 520.315 155 519.762C162.924 519.212 174.68 505.888 182 501.865C197.043 493.598 214.088 490.993 231 491C245.486 491.006 260.111 494.651 273 501.259C278.819 504.243 286.662 512.41 293 513.157C299.779 513.957 311.43 501.466 314 496L327 499L327 498C314.619 494.433 289.165 480.352 293.438 464.001C295.171 457.369 301.763 455.925 307 453.085C315.485 448.484 324.586 441.605 331.985 435.384C344.572 424.804 354.075 410.423 366 399.039C374.604 390.826 385.498 385.312 393.91 376.91C407.068 363.77 415.793 349.495 435 344.899C454.698 340.186 469.861 350.602 479.796 367C483.64 373.346 485.588 381.203 490.39 386.91C501.585 400.215 516.108 406.164 531 414C541.59 395.855 546.748 375.658 549.285 355C551.611 336.059 549.332 316.313 544.14 298C539.665 282.214 532.096 267.585 522.999 254C450.659 145.971 271.149 154.067 207.15 266C195.91 285.66 188.063 309.169 188 332z"/>
<path style="fill:#7c8e77; stroke:none;" d="M382 177L382 178L387 178L382 177M342 178L342 179L345 179L342 178M393 178L393 179L396 179L393 178M335.667 179.333L336.333 179.667L335.667 179.333M400 179L400 180L403 180L400 179M330 180L331 181L330 180M406.667 180.333L407.333 180.667L406.667 180.333M325 181L326 182L325 181M411.667 181.333L412.333 181.667L411.667 181.333M321 182L322 183L321 182M416 182L417 183L416 182M317 183L318 184L317 183M420 183L421 184L420 183M313 184L314 185L313 184M423 184L424 185L423 184M310 185L311 186L310 185M427 185L428 186L427 185M307 186L308 187L307 186M430 186L431 187L430 186M304 187L305 188L304 187M433 187L434 188L433 187M301 188L302 189L301 188M436 188L437 189L436 188M298 189L299 190L298 189M441 190L442 191L441 190M293 191L294 192L293 191M291 192L292 193L291 192M446 192L447 193L446 192M448 193L449 194L448 193M286 194L287 195L286 194M284 195L285 196L284 195M282 196L283 197L282 196M455 196L456 197L455 196M280 197L281 198L280 197M457 197L458 198L457 197M278 198L279 199L278 198M276 199L277 200L276 199M274 200L275 201L274 200M464 201L465 202L464 201M271 202L272 203L271 202M466 202L467 203L466 202M269 203L270 204L269 203M471 205L472 206L471 205M264 206L265 207L264 206M474 207L475 208L474 207M261 208L262 209L261 208M477 209L478 210L477 209M258 210L259 211L258 210M480 211L481 212L480 211M255 212L256 213L255 212M254 213L255 214L254 213M483 213L484 214L483 213M484 214L485 215L484 214M251 215L252 216L251 215M250 216L251 217L250 216M488 217L489 218L488 217M246 219L247 220L246 219M245 220L246 221L245 220M493 221L494 222L493 221M494 222L495 223L494 222M238 226L239 227L238 226M237 227L238 228L237 227M236 228L237 229L236 228M235 229L236 230L235 229M234 230L235 231L234 230M233 231L234 232L233 231M232 232L233 233L232 232M231 233L232 234L231 233M230 234L231 235L230 234M229 235L230 236L229 235M512 240L513 241L512 240M513 241L514 242L513 241M223 242L224 243L223 242M222 243L223 244L222 243M517 246L518 247L517 246M219 247L220 248L219 247M520 250L521 251L520 250M216 251L217 252L216 251M522 253L523 254L522 253M214 254L215 255L214 254M524 256L525 257L524 256M212 257L213 258L212 257M526 259L527 260L526 259M210 260L211 261L210 260M528 262L529 263L528 262M208 263L209 264L208 263M529 264L530 265L529 264M207 265L208 266L207 265M206 267L207 268L206 267M531 267L532 268L531 267M532 269L533 270L532 269M533 271L534 272L533 271M203 272L204 273L203 272M534 273L535 274L534 273M202 274L203 275L202 274M535 275L536 276L535 275M536 277L537 278L536 277M200 279L201 280L200 279M199 281L200 282L199 281M538 282L539 283L538 282M198 283L199 284L198 283M539 284L540 285L539 284M197 286L198 287L197 286M540 287L541 288L540 287M195 291L196 292L195 291M542 292L543 293L542 292M194 294L195 295L194 294M543 295L544 296L543 295M193 298L194 299L193 298M544 299L545 300L544 299M192 301L193 302L192 301M545 302L546 303L545 302M191 305L192 306L191 305M546.333 306.667L546.667 307.333L546.333 306.667M190.333 309.667L190.667 310.333L190.333 309.667M547.333 311.667L547.667 312.333L547.333 311.667M189.333 314.667L189.667 315.333L189.333 314.667M548 316L548 319L549 319L548 316M187 330C180.653 336.874 165.728 338.776 157 342.203C137.284 349.944 117.352 359.168 100 371.424C81.6057 384.417 46.1973 417.388 80 435.015C84.7026 437.468 89.8669 438.897 95 440.116C101.78 441.725 109.027 442.815 116 442.985C174.822 444.426 234.494 427.781 286 399.769C302.294 390.908 319.538 379.452 330.226 364C335.636 356.179 339.486 346.014 334.583 337C328.556 325.922 314.574 321.87 303 319.921C276.613 315.475 248.061 318.103 222 323.661C212.757 325.633 195.871 333.365 187 330M188 320L188 324L189 324L188 320z"/>
<path style="fill:#f8b13d; stroke:none;" d="M256 321L256 322L260 322L256 321z"/>
<path style="fill:#fef9f5; stroke:none;" d="M260 321.424C204.755 328.678 149.54 340.991 103 373.721C96.9536 377.973 91.1609 382.662 86.0394 388.001C82.5797 391.608 79.3143 395.602 76.9043 400C69.0239 414.381 75.2488 427.566 90 433.547C108.936 441.225 131.041 440.731 151 438.83C203.889 433.794 262.586 416.25 305 383.335C310.548 379.029 315.79 374.492 320.192 369C322.935 365.578 325.544 362.033 327.32 358C332.867 345.408 327.473 333.621 315 328.04C298.931 320.85 277.35 319.146 260 321.424z"/>
<path style="fill:#f8b13d; stroke:none;" d="M285 321L285 322L288 322L285 321M246.667 322.333L247.333 322.667L246.667 322.333M294.667 322.333L295.333 322.667L294.667 322.333M238.667 323.333L239.333 323.667L238.667 323.333M300 323L301 324L300 323z"/>
<path style="fill:#7c8e77; stroke:none;" d="M549 323L549 327L550 327L549 323z"/>
<path style="fill:#f8b13d; stroke:none;" d="M231.667 324.333L232.333 324.667L231.667 324.333M304 324L305 325L304 324M226 325L227 326L226 325M308 325L309 326L308 325M220.667 326.333L221.333 326.667L220.667 326.333M311 326L312 327L311 326M216 327L217 328L216 327M313 327L314 328L313 327M211 328L212 329L211 328M207 329L208 330L207 329M203 330L204 331L203 330M319 330L320 331L319 330M199 331L200 332L199 331M195 332L196 333L195 332M192 333L193 334L192 333M323 333L324 334L323 333M188 334L189 335L188 334M324 334L325 335L324 334M185 335L186 336L185 335M325 335L326 336L325 335M182 336L183 337L182 336M179 337L180 338L179 337M176 338L177 339L176 338M327 338L328 339L327 338z"/>
<path style="fill:#7c8e77; stroke:none;" d="M550 338L550 343L551 343L550 338z"/>
<path style="fill:#f8b13d; stroke:none;" d="M173 339L174 340L173 339M170 340L171 341L170 340M328 340L329 341L328 340z"/>
<path style="fill:#fef9f5; stroke:none;" d="M653 340C653 405.686 626.803 471.987 587.626 524C578.276 536.412 567.98 548.02 557 559C554.031 561.969 548.978 569.3 544.424 569.556C541.307 569.73 537.383 565.955 535 564.279C526.908 558.588 519.683 551.82 512 545.612C495.94 532.633 476.217 528.111 456 532.665C437.368 536.862 424.838 552.528 410 563.255C389.083 578.376 363.89 585.893 338 582.714C319.45 580.436 302.787 573.116 288 561.765C273.563 550.682 260.691 535.774 242 532.261C225.104 529.085 207.149 531.569 193 541.746C174.418 555.113 149.932 583.904 124 581.407C118.698 580.897 113.78 575.042 110 571.714C98.0022 561.152 86.5885 549.197 76.2747 537C33.3259 486.21 1 415.554 1 348L0 348L0 654L318 654L318 653C289.023 646.117 273.317 615.625 245 608.156C231.827 604.681 216.654 605.149 204 610.464C198.301 612.859 191.139 621.069 185 620.933C175.971 620.732 165.04 610.754 157 607C179.551 593.136 196.592 569.285 225 568.039C256.576 566.655 273.639 590.818 298 606.305C316.764 618.234 340.087 621.951 362 619.83C375.957 618.48 390.164 613.829 402 606.305C432.44 586.953 458.078 553.849 498 573.81C506.509 578.065 514.047 584.596 521 591C511.559 595.466 503.222 605.462 493 608.008C487.893 609.281 481.231 606.448 476 606.089C465.896 605.397 455.24 607.117 446 611.312C428.901 619.076 417.44 635.398 401 644.33C386.495 652.211 363.225 653 347 653L347 654L654 654L654 432L654 368L653 340z"/>
<path style="fill:#f8b13d; stroke:none;" d="M167 341L168 342L167 341M164 342L165 343L164 342M329 343L330 344L329 343M159 344L160 345L159 344z"/>
<path style="fill:#7c8e77; stroke:none;" d="M436 344L436 345L439 345L436 344z"/>
<path style="fill:#f8b13d; stroke:none;" d="M439 344L440 345L439 344z"/>
<path style="fill:#fef9f5; stroke:none;" d="M440 344.428C416.926 347.734 407.59 362.759 392 377.985C384.641 385.173 375.53 390.112 368 397.09C355.171 408.979 344.637 422.938 332 434.96C325.096 441.528 316.019 447.298 308 452.451C303.939 455.061 298.587 456.175 295.514 460.108C289.808 467.41 296.699 478.512 302.093 483.907C320.399 502.214 355.302 509.398 380 512.87C387.809 513.967 398.26 516.773 406 514.487C412.136 512.675 417.464 507.038 423 503.873C433.643 497.788 445.745 493.416 458 492.171C472.218 490.726 486.123 491.349 500 495.152C507.341 497.164 516.427 503.917 524 503.01C532.623 501.977 541.632 499.282 550 496.989C556.055 495.33 562.579 493.794 568 490.521C581.01 482.665 580.632 469.606 575.124 457C566.658 437.622 547.071 422.759 529 412.921C519.415 407.702 509.16 404.455 501 396.91C481.11 378.517 474.231 339.524 440 344.428z"/>
<path style="fill:#7c8e77; stroke:none;" d="M451 344L451 345L454 345L451 344M432 345L433 346L432 345z"/>
<path style="fill:#f8b13d; stroke:none;" d="M433 345L434 346L433 345z"/>
<path style="fill:#7c8e77; stroke:none;" d="M456 345L457 346L456 345z"/>
<path style="fill:#f8b13d; stroke:none;" d="M154 346L155 347L154 346z"/>
<path style="fill:#7c8e77; stroke:none;" d="M429 346L430 347L429 346M459 346L460 347L459 346M426 347L427 348L426 347M461 347L462 348L461 347z"/>
<path style="fill:#f8b13d; stroke:none;" d="M149 348L150 349L149 348z"/>
<path style="fill:#7c8e77; stroke:none;" d="M423 348L424 349L423 348M463 348L464 349L463 348z"/>
<path style="fill:#f8b13d; stroke:none;" d="M147 349L148 350L147 349z"/>
<path style="fill:#7c8e77; stroke:none;" d="M421 349L422 350L421 349M466 350L467 351L466 350z"/>
<path style="fill:#f8b13d; stroke:none;" d="M142 351L143 352L142 351M329.333 351.667L329.667 352.333L329.333 351.667z"/>
<path style="fill:#7c8e77; stroke:none;" d="M418 351L419 352L418 351M467 351L468 352L467 351z"/>
<path style="fill:#f8b13d; stroke:none;" d="M140 352L141 353L140 352M468 352L469 353L468 352M138 353L139 354L138 353z"/>
<path style="fill:#7c8e77; stroke:none;" d="M415 353L416 354L415 353z"/>
<path style="fill:#f8b13d; stroke:none;" d="M469 353L470 354L469 353z"/>
<path style="fill:#7c8e77; stroke:none;" d="M549 353L549 358L550 358L549 353z"/>
<path style="fill:#f8b13d; stroke:none;" d="M136 354L137 355L136 354M414 354L415 355L414 354M470 354L471 355L470 354M134 355L135 356L134 355M328 355L329 356L328 355z"/>
<path style="fill:#7c8e77; stroke:none;" d="M471 355L472 356L471 355z"/>
<path style="fill:#f8b13d; stroke:none;" d="M132 356L133 357L132 356z"/>
<path style="fill:#7c8e77; stroke:none;" d="M472 356L473 357L472 356z"/>
<path style="fill:#f8b13d; stroke:none;" d="M130 357L131 358L130 357M327 357L328 358L327 357z"/>
<path style="fill:#7c8e77; stroke:none;" d="M473 357L474 358L473 357z"/>
<path style="fill:#f8b13d; stroke:none;" d="M128 358L129 359L128 358M126 359L127 360L126 359M124 360L125 361L124 360z"/>
<path style="fill:#7c8e77; stroke:none;" d="M475 360L476 361L475 360z"/>
<path style="fill:#f8b13d; stroke:none;" d="M325 361L326 362L325 361z"/>
<path style="fill:#7c8e77; stroke:none;" d="M476 361L477 362L476 361M548 362L548 365L549 365L548 362z"/>
<path style="fill:#f8b13d; stroke:none;" d="M119 363L120 364L119 363z"/>
<path style="fill:#7c8e77; stroke:none;" d="M477 363L478 364L477 363z"/>
<path style="fill:#f8b13d; stroke:none;" d="M117 364L118 365L117 364M323 364L324 365L323 364M404 364L405 365L404 364z"/>
<path style="fill:#7c8e77; stroke:none;" d="M478 364L479 365L478 364M403 365L404 366L403 365M402 366L403 367L402 366M479 366L480 367L479 366z"/>
<path style="fill:#f8b13d; stroke:none;" d="M112 367L113 368L112 367M320 368L321 369L320 368M480 368L481 369L480 368z"/>
<path style="fill:#7c8e77; stroke:none;" d="M547.333 368.667L547.667 369.333L547.333 368.667z"/>
<path style="fill:#f8b13d; stroke:none;" d="M109 369L110 370L109 369M319 369L320 370L319 369z"/>
<path style="fill:#7c8e77; stroke:none;" d="M481 369L482 370L481 369z"/>
<path style="fill:#f8b13d; stroke:none;" d="M399 370L400 371L399 370M106 371L107 372L106 371z"/>
<path style="fill:#7c8e77; stroke:none;" d="M398 371L399 372L398 371M482 371L483 372L482 371M397 372L398 373L397 372z"/>
<path style="fill:#f8b13d; stroke:none;" d="M103 373L104 374L103 373z"/>
<path style="fill:#7c8e77; stroke:none;" d="M483 373L484 374L483 373M546 373L547 374L546 373z"/>
<path style="fill:#f8b13d; stroke:none;" d="M483 374L484 375L483 374M99 376L100 377L99 376M484 376L485 377L484 376z"/>
<path style="fill:#7c8e77; stroke:none;" d="M545 377L546 378L545 377z"/>
<path style="fill:#f8b13d; stroke:none;" d="M310 378L311 379L310 378z"/>
<path style="fill:#7c8e77; stroke:none;" d="M485 378L486 379L485 378z"/>
<path style="fill:#f8b13d; stroke:none;" d="M95 379L96 380L95 379M309 379L310 380L309 379M94 380L95 381L94 380z"/>
<path style="fill:#7c8e77; stroke:none;" d="M389 380L390 381L389 380M486 380L487 381L486 380M388 381L389 382L388 381M544 381L545 382L544 381z"/>
<path style="fill:#f8b13d; stroke:none;" d="M387 382L388 383L387 382z"/>
<path style="fill:#7c8e77; stroke:none;" d="M487 382L488 383L487 382z"/>
<path style="fill:#f8b13d; stroke:none;" d="M304 383L305 384L304 383z"/>
<path style="fill:#7c8e77; stroke:none;" d="M384 384L385 385L384 384M488 384L489 385L488 384M543 384L544 385L543 384z"/>
<path style="fill:#f8b13d; stroke:none;" d="M383 385L384 386L383 385M300 386L301 387L300 386z"/>
<path style="fill:#7c8e77; stroke:none;" d="M381 386L382 387L381 386M489 386L490 387L489 386M380 387L381 388L380 387M490 387L491 388L490 387z"/>
<path style="fill:#f8b13d; stroke:none;" d="M297 388L298 389L297 388M491 388L492 389L491 388z"/>
<path style="fill:#7c8e77; stroke:none;" d="M377 389L378 390L377 389z"/>
<path style="fill:#f8b13d; stroke:none;" d="M294 390L295 391L294 390M376 390L377 391L376 390z"/>
<path style="fill:#7c8e77; stroke:none;" d="M494 390L495 391L494 390M541 390L542 391L541 390M495 391L496 392L495 391z"/>
<path style="fill:#f8b13d; stroke:none;" d="M291 392L292 393L291 392z"/>
<path style="fill:#7c8e77; stroke:none;" d="M373 392L374 393L373 392z"/>
<path style="fill:#f8b13d; stroke:none;" d="M496 392L497 393L496 392M81 393L82 394L81 393M372 393L373 394L372 393M497 393L498 394L497 393z"/>
<path style="fill:#7c8e77; stroke:none;" d="M540 393L541 394L540 393z"/>
<path style="fill:#f8b13d; stroke:none;" d="M80 394L81 395L80 394M288 394L289 395L288 394z"/>
<path style="fill:#7c8e77; stroke:none;" d="M498 394L499 395L498 394z"/>
<path style="fill:#f8b13d; stroke:none;" d="M286 395L287 396L286 395z"/>
<path style="fill:#7c8e77; stroke:none;" d="M369 395L370 396L369 395M499 395L500 396L499 395M368 396L369 397L368 396M500 396L501 397L500 396z"/>
<path style="fill:#f8b13d; stroke:none;" d="M78 397L79 398L78 397M283 397L284 398L283 397z"/>
<path style="fill:#7c8e77; stroke:none;" d="M367 397L368 398L367 397M501 397L502 398L501 397z"/>
<path style="fill:#f8b13d; stroke:none;" d="M281 398L282 399L281 398M366 398L367 399L366 398z"/>
<path style="fill:#7c8e77; stroke:none;" d="M502 398L503 399L502 398M538 398L539 399L538 398z"/>
<path style="fill:#f8b13d; stroke:none;" d="M365 399L366 400L365 399z"/>
<path style="fill:#7c8e77; stroke:none;" d="M503 399L504 400L503 399z"/>
<path style="fill:#f8b13d; stroke:none;" d="M364 400L365 401L364 400z"/>
<path style="fill:#7c8e77; stroke:none;" d="M537 400L538 401L537 400z"/>
<path style="fill:#f8b13d; stroke:none;" d="M363 401L364 402L363 401z"/>
<path style="fill:#7c8e77; stroke:none;" d="M506 401L507 402L506 401z"/>
<path style="fill:#f8b13d; stroke:none;" d="M362 402L363 403L362 402M507 402L508 403L507 402M361 403L362 404L361 403z"/>
<path style="fill:#7c8e77; stroke:none;" d="M509 403L510 404L509 403z"/>
<path style="fill:#f8b13d; stroke:none;" d="M360 404L361 405L360 404z"/>
<path style="fill:#7c8e77; stroke:none;" d="M511 404L512 405L511 404z"/>
<path style="fill:#f8b13d; stroke:none;" d="M74 405L75 406L74 405z"/>
<path style="fill:#7c8e77; stroke:none;" d="M359 405L360 406L359 405M513 405L514 406L513 405M358 406L359 407L358 406M515 406L516 407L515 406M357 407L358 408L357 407z"/>
<path style="fill:#f8b13d; stroke:none;" d="M517 407L518 408L517 407z"/>
<path style="fill:#7c8e77; stroke:none;" d="M534 407L535 408L534 407z"/>
<path style="fill:#f8b13d; stroke:none;" d="M73 408L74 409L73 408z"/>
<path style="fill:#7c8e77; stroke:none;" d="M356 408L357 409L356 408M520 408L521 409L520 408z"/>
<path style="fill:#f8b13d; stroke:none;" d="M259 409L260 410L259 409z"/>
<path style="fill:#7c8e77; stroke:none;" d="M355 409L356 410L355 409M522 409L523 410L522 409M533 409L534 410L533 409z"/>
<path style="fill:#f8b13d; stroke:none;" d="M257 410L258 411L257 410z"/>
<path style="fill:#7c8e77; stroke:none;" d="M354 410L355 411L354 410M524 410L525 411L524 410z"/>
<path style="fill:#f8b13d; stroke:none;" d="M255 411L256 412L255 411z"/>
<path style="fill:#7c8e77; stroke:none;" d="M526 411L527 412L526 411M528 412L529 413L528 412z"/>
<path style="fill:#f8b13d; stroke:none;" d="M250 413L251 414L250 413M529 413L530 414L529 413M245 415L246 416L245 415M73.3333 417.667L73.6667 418.333L73.3333 417.667M240 417L241 418L240 417M348 417L349 418L348 417M237 418L238 419L237 418M347 418L348 419L347 418M234 419L235 420L234 419z"/>
<path style="fill:#7c8e77; stroke:none;" d="M346 419L347 420L346 419z"/>
<path style="fill:#f8b13d; stroke:none;" d="M74 420L75 421L74 420M232 420L233 421L232 420z"/>
<path style="fill:#7c8e77; stroke:none;" d="M345 420L346 421L345 420z"/>
<path style="fill:#f8b13d; stroke:none;" d="M229 421L230 422L229 421M75 422L76 423L75 422M226 422L227 423L226 422M223 423L224 424L223 423M220 424L221 425L220 424M342 424L343 425L342 424M77 425L78 426L77 425M216 425L217 426L216 425M341 425L342 426L341 425M78 426L79 427L78 426M213 426L214 427L213 426z"/>
<path style="fill:#7c8e77; stroke:none;" d="M340 426L341 427L340 426M69.3333 427.667L69.6667 428.333L69.3333 427.667z"/>
<path style="fill:#f8b13d; stroke:none;" d="M79 427L80 428L79 427M209.667 427.333L210.333 427.667L209.667 427.333z"/>
<path style="fill:#7c8e77; stroke:none;" d="M339 427L340 428L339 427z"/>
<path style="fill:#f8b13d; stroke:none;" d="M206 428L207 429L206 428z"/>
<path style="fill:#7c8e77; stroke:none;" d="M338 428L339 429L338 428z"/>
<path style="fill:#f8b13d; stroke:none;" d="M202 429L203 430L202 429z"/>
<path style="fill:#7c8e77; stroke:none;" d="M337 429L338 430L337 429M70 430L71 431L70 430z"/>
<path style="fill:#f8b13d; stroke:none;" d="M83 430L84 431L83 430M198 430L199 431L198 430M85 431L86 432L85 431M194 431L195 432L194 431z"/>
<path style="fill:#7c8e77; stroke:none;" d="M71 432L72 433L71 432z"/>
<path style="fill:#f8b13d; stroke:none;" d="M87 432L88 433L87 432M190 432L191 433L190 432M89 433L90 434L89 433M185 433L186 434L185 433M92 434L93 435L92 434M180.667 434.333L181.333 434.667L180.667 434.333z"/>
<path style="fill:#7c8e77; stroke:none;" d="M72 435L73 436L72 435z"/>
<path style="fill:#f8b13d; stroke:none;" d="M95 435L96 436L95 435M175 435L176 436L175 435z"/>
<path style="fill:#7c8e77; stroke:none;" d="M331 435L332 436L331 435z"/>
<path style="fill:#f8b13d; stroke:none;" d="M98 436L99 437L98 436M169 436L170 437L169 436z"/>
<path style="fill:#7c8e77; stroke:none;" d="M330 436L331 437L330 436M73 437L74 438L73 437z"/>
<path style="fill:#f8b13d; stroke:none;" d="M102.667 437.333L103.333 437.667L102.667 437.333M162.667 437.333L163.333 437.667L162.667 437.333z"/>
<path style="fill:#7c8e77; stroke:none;" d="M329 437L330 438L329 437z"/>
<path style="fill:#f8b13d; stroke:none;" d="M108.667 438.333L109.333 438.667L108.667 438.333M153 438L153 439L156 439L153 438M328 438L329 439L328 438z"/>
<path style="fill:#7c8e77; stroke:none;" d="M74 439L75 440L74 439z"/>
<path style="fill:#f8b13d; stroke:none;" d="M117 439L117 440L121 440L117 439M140 439L140 440L144 440L140 439z"/>
<path style="fill:#7c8e77; stroke:none;" d="M326 439L327 440L326 439M325 440L326 441L325 440M75 441L76 442L75 441M323 441L324 442L323 441M322 442L323 443L322 442M76 443L77 444L76 443M320 443L321 444L320 443M318 444L319 445L318 444M77 445L78 446L77 445M317 445L318 446L317 445M78 446L79 447L78 446M314 447L315 448L314 447M79 448L80 449L79 448M313 448L314 449L313 448z"/>
<path style="fill:#f8b13d; stroke:none;" d="M312 449L313 450L312 449z"/>
<path style="fill:#7c8e77; stroke:none;" d="M80 450L81 451L80 450M309 451L310 452L309 451z"/>
<path style="fill:#f8b13d; stroke:none;" d="M308 452L309 453L308 452z"/>
<path style="fill:#7c8e77; stroke:none;" d="M82 453L83 454L82 453M306 453L307 454L306 453M304 454L305 455L304 454M83 455L84 456L83 455M300.667 455.333L301.333 455.667L300.667 455.333z"/>
<path style="fill:#f8b13d; stroke:none;" d="M302 455L303 456L302 455z"/>
<path style="fill:#7c8e77; stroke:none;" d="M84 456L85 457L84 456z"/>
<path style="fill:#f8b13d; stroke:none;" d="M299 456L300 457L299 456z"/>
<path style="fill:#7c8e77; stroke:none;" d="M297 457L298 458L297 457M85 458L86 459L85 458M296 458L297 459L296 458M86 459L87 460L86 459M295 459L296 460L295 459M294 460L295 461L294 460M87 461L88 462L87 461M88 462L89 463L88 462M293 462L294 463L293 462z"/>
<path style="fill:#f8b13d; stroke:none;" d="M293 463L294 464L293 463z"/>
<path style="fill:#7c8e77; stroke:none;" d="M90 465L91 466L90 465M91 466L92 467L91 466z"/>
<path style="fill:#f8b13d; stroke:none;" d="M293 468L294 469L293 468z"/>
<path style="fill:#7c8e77; stroke:none;" d="M93 469L94 470L93 469M293.333 469.667L293.667 470.333L293.333 469.667M94 470L95 471L94 470M294 472L295 473L294 472M97 474L98 475L97 474z"/>
<path style="fill:#f8b13d; stroke:none;" d="M295 474L296 475L295 474z"/>
<path style="fill:#7c8e77; stroke:none;" d="M98 475L99 476L98 475M295 475L296 476L295 475M99 476L100 477L99 476M296 476L297 477L296 476M297 478L298 479L297 478M298 479L299 480L298 479M300 482L301 483L300 482M105 483L106 484L105 483M301 483L302 484L301 483M106 484L107 485L106 484M302 484L303 485L302 484M107 485L108 486L107 485M303 485L304 486L303 485M108 486L109 487L108 486M109 487L110 488L109 487M306 487L307 488L306 487M110 488L111 489L110 488M307 488L308 489L307 488M111 489L112 490L111 489M309 489L310 490L309 489M112 490L113 491L112 490M311 490L312 491L311 490M113 491L114 492L113 491M216 491L216 492L222 492L216 491z"/>
<path style="fill:#f8b13d; stroke:none;" d="M75 535C78.9722 543.569 87.4063 550.406 94 557C101.361 564.361 111.611 578.48 122 581.397C130.784 583.863 144.43 576.562 152 572.752C177.263 560.038 193.946 533.159 224 531.089C251.662 529.185 267.603 547.203 288 562.525C302.786 573.631 320.342 581.626 339 582.911C364.615 584.674 387.773 579.256 409 564.653C425.027 553.627 438.053 536.535 458 532.45C478.012 528.351 496.337 533.611 512 546.424C519.732 552.75 533.453 569.233 544 569.864C548.038 570.106 551.448 565.538 554 562.999C560.939 556.097 569.865 549.027 574 540C557.817 535.338 546.085 521.3 533 511.475C515.073 498.015 491.716 489.543 469 491.09C451.237 492.299 434.227 496.015 419 505.695C392.241 522.707 375.76 546.307 341 542.829C319.468 540.675 305.379 523.166 289 511.155C271.065 498.003 249.364 490.575 227 491.015C205.456 491.439 185.435 498.142 168 510.745C153.288 521.38 141.073 536.181 123 541.254C105.87 546.062 90.7039 541.538 75 535z"/>
<path style="fill:#7c8e77; stroke:none;" d="M234 491L234 492L241 492L234 491M312 491L313 492L312 491M209 492L209 493L212 493L209 492M245 492L245 493L248 493L245 492M314 492L315 493L314 492M204.667 493.333L205.333 493.667L204.667 493.333M250.667 493.333L251.333 493.667L250.667 493.333M316 493L317 494L316 493M200.667 494.333L201.333 494.667L200.667 494.333M255 494L256 495L255 494M318 494L319 495L318 494M197 495L198 496L197 495M258.667 495.333L259.333 495.667L258.667 495.333M320 495L321 496L320 495M119 496L120 497L119 496M194 496L195 497L194 496M261.667 496.333L262.333 496.667L261.667 496.333M314 496L315 497L314 496M322 496L323 497L322 496M120 497L121 498L120 497M191 497L192 498L191 497M264 497L265 498L264 497z"/>
<path style="fill:#63bbb1; stroke:none;" d="M294 514L294 516C303.026 522.852 310.974 531.214 321 536.688C337.738 545.826 362.251 545.885 379 536.687C388.978 531.207 396.973 522.803 406 516C399.275 513.178 389.349 514.009 382 513C368.392 511.131 355.02 508.023 342 503.667C335.166 501.38 322.189 495.57 315 497.694C307.79 499.823 300.398 509.634 294 514z"/>
<path style="fill:#7c8e77; stroke:none;" d="M318 497L319 498L318 497M324 497L325 498L324 497z"/>
<path style="fill:#f8b13d; stroke:none;" d="M325 497L326 498L325 497z"/>
<path style="fill:#7c8e77; stroke:none;" d="M121 498L122 499L121 498M189 498L190 499L189 498M267 498L268 499L267 498M322 498L323 499L322 498M327 498L326 500L328 500L327 498M186 499L187 500L186 499M269 499L270 500L269 499z"/>
<path style="fill:#55452f; stroke:none;" d="M328 499L329 500L328 499z"/>
<path style="fill:#7c8e77; stroke:none;" d="M329 499L330 500L329 499z"/>
<path style="fill:#f8b13d; stroke:none;" d="M330 499L331 500L330 499z"/>
<path style="fill:#7c8e77; stroke:none;" d="M184 500L185 501L184 500M271 500L272 501L271 500M125 501L126 502L125 501M182 501L183 502L182 501M273 501L274 502L273 501M126 502L127 503L126 502M180 502L181 503L180 502M275 502L276 503L275 502M179 503L180 504L179 503M277 503L278 504L277 503M307 503L308 504L307 503M129 504L130 505L129 504M177 504L178 505L177 504M306 504L307 505L306 504M130 505L131 506L130 505M175 505L176 506L175 505M280 505L281 506L280 505M305 505L306 506L305 505M174 506L175 507L174 506M282 506L283 507L282 506M304 506L305 507L304 506M133 507L134 508L133 507M172 507L173 508L172 507M283 507L284 508L283 507M134 508L135 509L134 508M171 508L172 509L171 508M285 508L286 509L285 508M136 509L137 510L136 509M169 509L170 510L169 509M286 509L287 510L286 509M300 509L301 510L300 509M137 510L138 511L137 510M168 510L169 511L168 510M299 510L300 511L299 510M139 511L140 512L139 511M289 511L290 512L289 511M140 512L141 513L140 512M165 512L166 513L165 512M290 512L291 513L290 512M296 512L297 513L296 512M142 513L143 514L142 513M164 513L165 514L164 513M143 514L144 515L143 514M163 514L164 515L163 514M293 514L294 515L293 514M145 515L146 516L145 515M147 516L148 517L147 516M160 516L161 517L160 516M159 517L160 518L159 517M150 518L151 519L150 518M158 518L159 519L158 518M152 519L153 520L152 519M157 519L158 520L157 519M154 520L155 521L154 520M333 541L334 542L333 541M366 541L367 542L366 541M361 542L362 543L361 542z"/>
<path style="fill:#f8b13d; stroke:none;" d="M157 607C163.65 611.386 177.747 622.257 186 621.357C192.195 620.682 198.297 613.501 204 610.9C215.979 605.438 230.342 604.808 243 607.898C272.191 615.025 288.123 647.108 318 653.482C336.647 657.461 360.432 653.15 379 650.08C387.082 648.744 395.798 647.905 403 643.767C419.443 634.318 431.23 617.635 449 610.453C457.338 607.083 467.015 605.311 476 606.17C481.231 606.67 487.853 609.444 493 608.411C502.667 606.469 512.96 596.425 521 591C516.8 585.508 510.745 581.167 505 577.356C485.618 564.498 458.543 564.917 439 577.066C424.736 585.933 413.523 598.907 399 607.547C387.793 614.214 374.906 618.129 362 619.714C341.047 622.287 318.018 618.056 300 606.935C268.583 587.544 246.129 556.402 205 572.066C188.05 578.521 170.573 595.154 157 607z"/>
</svg>
