<?xml version="1.0" encoding="UTF-8"?> <svg xmlns="http://www.w3.org/2000/svg" viewBox="0 0 100 100"> <defs> <style>.a{fill:#572972;}.b{fill:#efa76f;}</style> </defs> <title>L-Glutamine</title> <circle class="a" cx="50" cy="50" r="50"></circle> <path class="b" d="M16,34.2H22.1V60.3H35.37v5.4H16Z"></path> <path class="b" d="M51.35,51.53v5H36.5v-5Z"></path> <path class="b" d="M61,50a10.6,10.6,0,0,0,10.75,10.8,11,11,0,0,0,7-2.43V51.53H70.7v-5.4H84.87v14a16.56,16.56,0,0,1-13.23,6C61.83,66.15,54.95,59,54.95,50s6.79-16.2,16.6-16.2a16.37,16.37,0,0,1,11.52,4.5l-3.91,4.14a10.79,10.79,0,0,0-7.65-3.24A10.51,10.51,0,0,0,61,50Z"></path> </svg> 