<?xml version="1.0" encoding="UTF-8"?> <svg xmlns="http://www.w3.org/2000/svg" viewBox="0 0 100 100"> <defs> <style>.a{fill:#b8f4f1;}.b{fill:#f7a937;}.c{fill:#f4ebba;}.d{fill:#fff;}.e{fill:#6cba52;}.f{fill:#efaf11;}</style> </defs> <title>Natural Mango and Orange Flavours </title> <path class="a" d="M30.75,37.11A30.75,30.75,0,0,1,58.42,54.42,12.66,12.66,0,0,1,68,50.95a24.66,24.66,0,0,1,7.42,1.38c-1.62-7,1.46-19.25,9.33-23.5,3.68,3.26,6.12,11,5.63,17.55A15.91,15.91,0,0,1,100,49.11,50,50,0,1,0,1,60,30.77,30.77,0,0,1,30.75,37.11Z"></path> <path class="a" d="M86.87,60.23a23.62,23.62,0,0,1,4.49,8.31l.07.24a27.31,27.31,0,0,1,1.08,7.53A49.75,49.75,0,0,0,100,50c0-.27,0-.54,0-.81C98.56,54.06,93.08,60.39,86.87,60.23Z"></path> <path class="b" d="M32,95.83V69.92l14.4,8.32a13.54,13.54,0,0,0,1.42-2L33.23,67.78l22.35-12.9c.32.6.6,1.22.87,1.85a16,16,0,0,1,2-2.3A30.76,30.76,0,0,0,1,60a49.56,49.56,0,0,0,1.76,6.38A27.89,27.89,0,0,1,5.93,54.88l22.35,12.9-19.12,11q.72,1,1.49,2l18.87-10.9V95.61q1.9.85,3.87,1.55a8.81,8.81,0,0,1-.28-1.41C32.74,95.78,32.37,95.82,32,95.83ZM32,39.9A28,28,0,0,1,54.33,52.74L32,65.64ZM29.52,65.64,7.18,52.74A28,28,0,0,1,29.52,39.9Z"></path> <path class="c" d="M32,95.83c.38,0,.75-.05,1.12-.08-.53-4.47,2.15-9.52,5.58-12.36l-2.46-3.91a.95.95,0,0,1,1.6-1l2.39,3.81a41.9,41.9,0,0,0,4.91-2.82,9.61,9.61,0,0,0,1.25-1.22L32,69.92Z"></path> <path class="c" d="M7.18,52.74l22.34,12.9V39.9A28,28,0,0,0,7.18,52.74ZM21.1,50.59a.94.94,0,0,1,1.28.39l2.37,4.42a1,1,0,0,1-.39,1.28.93.93,0,0,1-.45.11,1,1,0,0,1-.83-.5l-2.37-4.42A1,1,0,0,1,21.1,50.59Z"></path> <path class="c" d="M33.23,67.78l14.59,8.42c.4-.68.77-1.37,1.09-2.08,2.52-5.47,4.08-12.52,7.54-17.4-.27-.63-.56-1.24-.87-1.85Zm13.57,1H40.88a.95.95,0,1,1,0-1.89H46.8a.95.95,0,1,1,0,1.89Z"></path> <path class="c" d="M32,39.9V65.64l22.34-12.9A28,28,0,0,0,32,39.9Zm9.22,12-2.72,4.42a.95.95,0,0,1-1.61-1l2.72-4.42a.95.95,0,1,1,1.61,1Z"></path> <path class="c" d="M5.93,54.88A27.89,27.89,0,0,0,2.77,66.42,49.82,49.82,0,0,0,9.16,78.82l19.12-11ZM19.46,68.81H14.25a.95.95,0,1,1,0-1.89h5.21a.95.95,0,0,1,0,1.89Z"></path> <path class="c" d="M10.64,80.82A50.16,50.16,0,0,0,29.52,95.61V69.92Zm11.71,4.07a.95.95,0,1,1-1.61-1l2.88-4.59a.95.95,0,1,1,1.61,1Z"></path> <path class="d" d="M23.08,56.3a1,1,0,0,0,.83.5.93.93,0,0,0,.45-.11,1,1,0,0,0,.39-1.28L22.38,51a.95.95,0,1,0-1.67.9Z"></path> <path class="d" d="M40.91,50.62a1,1,0,0,0-1.3.31l-2.72,4.42a.95.95,0,0,0,1.61,1l2.72-4.42A1,1,0,0,0,40.91,50.62Z"></path> <path class="d" d="M46.8,66.92H40.88a.95.95,0,1,0,0,1.89H46.8a.95.95,0,1,0,0-1.89Z"></path> <path class="d" d="M19.46,66.92H14.25a.95.95,0,1,0,0,1.89h5.21a.95.95,0,0,0,0-1.89Z"></path> <path class="d" d="M24.93,79a1,1,0,0,0-1.31.3l-2.88,4.59a.95.95,0,0,0,1.61,1l2.88-4.59A1,1,0,0,0,24.93,79Z"></path> <path class="d" d="M36.53,78.18a.94.94,0,0,0-.3,1.3l2.46,3.91a12.34,12.34,0,0,1,1.46-1.06l.08,0-2.39-3.81A.94.94,0,0,0,36.53,78.18Z"></path> <path class="e" d="M90.4,46.39c.5-6.6-1.94-14.29-5.62-17.55-7.87,4.24-10.94,16.45-9.33,23.5a26,26,0,0,1,11.42,7.9c6.21.16,11.69-6.17,13.11-11,0,0,0-.05,0-.08A15.91,15.91,0,0,0,90.4,46.39Z"></path> <path class="f" d="M91.36,68.54a23.62,23.62,0,0,0-4.49-8.31,26,26,0,0,0-11.42-7.9A24.66,24.66,0,0,0,68,50.95a12.66,12.66,0,0,0-9.61,3.47,16,16,0,0,0-2,2.3c-3.46,4.88-5,11.93-7.54,17.4-.33.71-.7,1.41-1.09,2.08a13.54,13.54,0,0,1-1.42,2,9.61,9.61,0,0,1-1.25,1.22,41.9,41.9,0,0,1-4.91,2.82l-.08,0a12.34,12.34,0,0,0-1.46,1.06c-3.43,2.85-6.1,7.9-5.58,12.36a8.81,8.81,0,0,0,.28,1.41A50,50,0,0,0,92.51,76.31a27.31,27.31,0,0,0-1.08-7.53Z"></path> </svg> 