<?xml version="1.0" encoding="UTF-8"?> <!-- Generator: Adobe Illustrator 21.1.0, SVG Export Plug-In . SVG Version: 6.00 Build 0) --> <svg xmlns="http://www.w3.org/2000/svg" xmlns:xlink="http://www.w3.org/1999/xlink" id="Layer_1" x="0px" y="0px" viewBox="0 0 600 600" style="enable-background:new 0 0 600 600;" xml:space="preserve"> <style type="text/css"> .st0{fill:#3D5CA1;} .st1{fill:#82C9E7;} </style> <title>17-09-25-LCO-Facebook-ProductLaunch-Joints-1</title> <circle class="st0" cx="300" cy="300" r="285.8"></circle> <g> <path class="st1" d="M359.7,327.7c-5.5-39.9,1.5-81.1,12.3-111.8c-40.6,10.2-141.3,45.1-187.9,61.5 C143.5,251.9,74.9,239,66.3,249.2c-6.5,7.8,50.4,45.4,79.4,63.8c-26.1,20-83.4,65.6-75.9,73c9.4,9.3,74.9-9.4,113.3-37.9 c44.6,12.4,142.9,38.3,199.9,42.7C371,373.3,363.1,352.1,359.7,327.7z"></path> <path class="st1" d="M496.5,255.4c-18.2-33-60.2-49-106.2-43c-11.8,29.1-20.3,72.7-14.7,113.1c3.7,26.9,13.1,49,27.8,65.8 c64.9-2.1,100.2-31.5,105-65.2C511.6,303.8,511.5,282.5,496.5,255.4z"></path> </g> <circle class="st0" cx="438.3" cy="266.2" r="16.3"></circle> </svg> 