<?xml version="1.0" encoding="UTF-8"?> <!-- Generator: Adobe Illustrator 21.1.0, SVG Export Plug-In . SVG Version: 6.00 Build 0) --> <svg xmlns="http://www.w3.org/2000/svg" xmlns:xlink="http://www.w3.org/1999/xlink" id="Layer_1" x="0px" y="0px" viewBox="0 0 600 600" style="enable-background:new 0 0 600 600;" xml:space="preserve"> <style type="text/css"> .st0{fill:#FCA9BB;} .st1{fill:none;stroke:#18A052;stroke-width:21;stroke-linejoin:round;stroke-miterlimit:10;} .st2{fill:#F9062F;} </style> <title>17-09-25-LCO-Facebook-ProductLaunch-Joints-1</title> <circle class="st0" cx="300" cy="300" r="285.8"></circle> <path class="st1" d="M194.2,327.2C177.9,211.6,213.7,130.5,298,91.8C323,239.8,414.3,309,414.3,309"></path> <path class="st2" d="M280.9,371.5c0,19-14,47.6-32.2,57.4c-15.8,8.5-30.4,13.1-57,13.1c-26.9,0-45.7-8.8-58.3-18.4 c-13.3-10.1-20.2-26-24-49.4c-7.2-43.8,8.6-70.5,36.2-75.1c18.2-3,31.8,4.3,45.9,3.8c14.8-0.5,26.9-4.8,38.7-6.2 C265.1,292.6,280.9,325.1,280.9,371.5z"></path> <path class="st2" d="M347.6,382.3c10.8,15.6,38.5,31.3,59.1,29c17.8-2,32.5-6.4,54.4-21.5c22.2-15.3,32.6-33.2,37.6-48.3 c5.2-15.8,1.8-32.9-8.2-54.3c-18.9-40.2-47.1-53.1-72.4-41.3c-16.7,7.8-23.7,21.6-35.6,29.2c-12.5,8-24.9,11.3-35.3,16.9 C315.8,308.5,321.2,344.1,347.6,382.3z"></path> </svg> 