<?xml version="1.0" encoding="UTF-8"?> <svg xmlns="http://www.w3.org/2000/svg" viewBox="0 0 100 100"> <defs> <style>.a{fill:#f2efc9;}.b{fill:#abd15d;}.c{fill:#d13333;}</style> </defs> <title>Natural Apple Flavour </title> <path class="a" d="M50,0A50,50,0,0,0,17.45,87.94c-1.45-4-2.61-7.76-3.48-10.61-2.63-8.63,2-25.79,16.52-29,4.68-1,12.29.33,19.85,1.88l.63.11c-3.66-12.14,3.57-19.2,14-25.12,1.84,11.44-1,19.43-6.44,23.6a52.87,52.87,0,0,1,6.13-1.3c9.85-1.55,21.44,3.87,22,17.84.22,5.25-1.33,13.89-4.13,22.55A50,50,0,0,0,50,0Z"></path> <path class="b" d="M58.55,48.83C64,44.66,66.83,36.67,65,25.23c-10.45,5.92-17.68,13-14,25.12C53.67,50.76,54.74,49.9,58.55,48.83Z"></path> <path class="c" d="M86.7,65.37c-.58-14-12.17-19.38-22-17.84a52.87,52.87,0,0,0-6.13,1.3c-3.81,1.07-4.89,1.94-7.59,1.52l-.63-.11c-7.56-1.56-15.17-2.91-19.85-1.88C16,51.54,11.34,68.7,14,77.33c.87,2.85,2,6.59,3.48,10.61a49.95,49.95,0,0,0,65.12,0C85.38,79.26,86.92,70.62,86.7,65.37Z"></path> </svg> 