<?xml version="1.0" encoding="UTF-8"?> <svg xmlns="http://www.w3.org/2000/svg" viewBox="0 0 100 100"> <defs> <style>.a{fill:#fcd4ca;}.b{fill:#ff8806;}</style> </defs> <title>Citric Acid</title> <circle class="a" cx="50" cy="50" r="50"></circle> <path class="b" d="M25.7,49.88a10.6,10.6,0,0,0,10.75,10.8,11,11,0,0,0,8.91-4.36L49.55,60a16.56,16.56,0,0,1-13.23,6c-9.81,0-16.69-7.16-16.69-16.2s6.79-16.2,16.6-16.2a16.37,16.37,0,0,1,11.52,4.5l-3.91,4.14a10.79,10.79,0,0,0-7.65-3.24A10.51,10.51,0,0,0,25.7,49.88Z"></path> <path class="b" d="M51.35,65.62l13.5-31.5h4.27l13.5,31.5H76.28l-3-7H60.66l-3,7ZM63,53.25h8l-4-9.32Z"></path> </svg> 