<?xml version="1.0" encoding="UTF-8"?> <svg xmlns="http://www.w3.org/2000/svg" viewBox="0 0 100 100"> <defs> <style>.a{fill:#ffc7a1;}.b{fill:#cc9871;}.c{fill:#e8b185;}</style> </defs> <title>Organic Ginger </title> <path class="a" d="M98.38,37.92a17.42,17.42,0,0,1-.13,2,19.11,19.11,0,0,1-2.74,7.75c-1.26,2-4.42.95-5.62-.48a9.25,9.25,0,0,0-1.68,4.76,14.1,14.1,0,0,0,.27,3.72c.4,2.08,1.11,3.93,1.45,5.23.76,3-1.78,6.09-5.69,7.51s-4.84.17-5.2-2c-.29-1.73-.88-2.18-1.85,0a21.47,21.47,0,0,0-.81,2.14c-.1.32-.21.6-.31.89a21.5,21.5,0,0,1-2.74,5.62s-7.59,7.58-13.84,3.19S49,69,51.18,60.49c0-.09.06-.17.08-.25a14,14,0,0,1,.91-2.42c2-4.23,6-7.28,10.07-10.23,1.32-1,2.63-1.92,3.89-2.91,1-.78,1.94-1.57,2.82-2.4a62.16,62.16,0,0,0-13.14,6.17c-.75.49-1.47,1-2.16,1.53-2.77,2.13-5,4.65-5.66,7.47-2.16,9.21-7.55,10.86-10.76,9.17A4.48,4.48,0,0,0,35.3,66c-.76,0-1.26.5-1.87,1.43s-1.15,1.9-2.13,3.31c-2.86,4.12-8.84,11.63-17.47,5.74,0,0-9.33-13.91-5.56-17.69,2.62-2.62,7.27-5.78,9.52-8.92a7.45,7.45,0,0,0,1-2A3.77,3.77,0,0,0,19,45.79c-1-4.34,7.22-15.08,13.47-16.92a18.33,18.33,0,0,1,3.71-.64,36.17,36.17,0,0,1,5.93.09,52.39,52.39,0,0,1,6.33,1s.45-4.56.67-5.69,5.47-3.13,14.08-5.09c4.6-1,8-1.82,10.58-2.35,1.1-.23,2.07-.41,2.91-.55s1.66-.25,2.33-.31c2.79-.23,2.3-1.46.65-2.85-1.08-.91-.62-1.75.14-2.6A49.91,49.91,0,1,0,98.39,37.37C98.39,37.54,98.39,37.72,98.38,37.92Z"></path> <path class="b" d="M17.79,49.86c-2.24,3.14-6.9,6.3-9.52,8.92-3.77,3.77,5.56,17.69,5.56,17.69,8.63,5.89,14.61-1.62,17.47-5.74,1-1.41,1.6-2.51,2.13-3.31C30.5,58.34,23.83,53.56,17.79,49.86Z"></path> <path class="b" d="M62.35,47.91l-.12-.32c-4,2.95-8,6-10.07,10.23,6.14-.93,14.94.31,20.62,4.09a13.77,13.77,0,0,1,4.39,4.49c1-2.18,1.56-1.73,1.85,0,.37,2.17,1.29,3.42,5.2,2s6.45-4.54,5.69-7.51c-.33-1.3-1-3.15-1.45-5.23C85.78,51.19,73.39,43.78,62.35,47.91Z"></path> <path class="b" d="M71.55,63.77C66,60,56.79,59,51.26,60.24c0,.09-.06.16-.08.25-2.13,8.48,2,13.37,8.3,17.76s13.84-3.19,13.84-3.19a21.5,21.5,0,0,0,2.74-5.62A10.18,10.18,0,0,0,71.55,63.77Z"></path> <path class="b" d="M80.32,33.47a1.12,1.12,0,0,1-1.56-1.27A16.45,16.45,0,0,0,77.2,19.58a10.75,10.75,0,0,0-3.45-3.44c-2.6.53-6,1.3-10.58,2.35-8.61,2-13.86,4-14.08,5.09s-.67,5.69-.67,5.69a52.39,52.39,0,0,0-6.33-1c6.47,3.5,13.22,10.06,13.72,20.14a62.16,62.16,0,0,1,13.14-6.17c-.88.83-1.83,1.62-2.82,2.4,8.94-1.24,17.71,3.15,22.09,7.26a9.25,9.25,0,0,1,1.68-4.76c1.21,1.43,4.36,2.51,5.62.48a19.11,19.11,0,0,0,2.74-7.75C92.78,34.83,84.95,31.26,80.32,33.47Z"></path> <path class="b" d="M79.64,12.43C81.3,13.82,81.78,15,79,15.28c-.67.06-1.44.16-2.33.31a13.3,13.3,0,0,1,2.43,2.81,18.14,18.14,0,0,1,2.23,12.39c5.26-1.15,11.9,2,17,6.21A50.05,50.05,0,0,0,79.77,9.83C79,10.68,78.56,11.52,79.64,12.43Z"></path> <path class="b" d="M36.16,28.23a18.33,18.33,0,0,0-3.71.64C26.2,30.71,17.93,41.46,19,45.79a3.77,3.77,0,0,1-.15,2.09C24.85,51.57,32,56.6,35.3,66a4.48,4.48,0,0,1,1.92.64c3.21,1.69,8.6,0,10.76-9.17.66-2.82,2.9-5.34,5.66-7.47C53.87,36.5,42.21,30.22,36.16,28.23Z"></path> <path class="c" d="M18.83,47.88a7.45,7.45,0,0,1-1,2c6,3.7,12.71,8.49,15.63,17.56C34,66.49,34.54,66,35.3,66,32,56.6,24.85,51.57,18.83,47.88Z"></path> <path class="c" d="M42.09,28.32a36.17,36.17,0,0,0-5.93-.09c6,2,17.71,8.27,17.48,21.75.69-.54,1.42-1,2.16-1.53C55.32,38.38,48.57,31.82,42.09,28.32Z"></path> <path class="c" d="M81.32,30.79A18.14,18.14,0,0,0,79.09,18.4a13.3,13.3,0,0,0-2.43-2.81c-.84.14-1.81.33-2.91.55a10.75,10.75,0,0,1,3.45,3.44A16.45,16.45,0,0,1,78.76,32.2a1.12,1.12,0,0,0,1.56,1.27c4.62-2.21,12.46,1.36,17.93,6.44a17.42,17.42,0,0,0,.13-2c0-.2,0-.38,0-.56s-.07-.24-.1-.37C93.22,32.79,86.57,29.64,81.32,30.79Z"></path> <path class="c" d="M72.79,61.91c-5.68-3.78-14.48-5-20.62-4.09a14,14,0,0,0-.91,2.42C56.79,59,66,60,71.55,63.77a10.18,10.18,0,0,1,4.5,5.67c.1-.29.21-.57.31-.89a21.47,21.47,0,0,1,.81-2.14A13.77,13.77,0,0,0,72.79,61.91Z"></path> <path class="c" d="M66.12,44.68c-1.26,1-2.57,1.94-3.89,2.91l.12.32c11-4.13,23.43,3.28,26.13,7.75a14.1,14.1,0,0,1-.27-3.72C83.83,47.84,75.06,43.45,66.12,44.68Z"></path> </svg> 