<?xml version="1.0" encoding="UTF-8"?> <svg xmlns="http://www.w3.org/2000/svg" viewBox="0 0 100 100"> <defs> <style>.a{fill:#f47a71;}.b{fill:#eddf5a;}.c{fill:#abd15d;}.d{fill:#e7f9bb;}.e{fill:#fff;}</style> </defs> <title>Natural Citrus Flavour</title> <path class="a" d="M50,0a50,50,0,1,0,50,50A50,50,0,0,0,50,0ZM65.89,82.93A28.1,28.1,0,0,1,46.61,78a46.29,46.29,0,0,1-5.23.3C27.19,78.34,16.66,72.7,12.26,64h0c-1.8-3-2.78-7.54-5.49-7.68-4.31-.21-3.88-6.37-.14-7.48,3-.87,4.92-5.56,7.19-7.54h0c4.93-7.52,14.39-12.57,27-12.57,15.27,0,27.34,6.78,31.45,16.77h0c1.08,2.13,1.34,4,3.1,4.89a2.88,2.88,0,0,1,1.8,2.91l13.61-1.53A28.22,28.22,0,0,1,65.89,82.93Z"></path> <path class="b" d="M34.69,58l42.48-4.77a2.88,2.88,0,0,0-1.8-2.91c-1.76-.86-2-2.76-3.1-4.89h0c-4.11-10-16.18-16.77-31.45-16.77-12.6,0-22.07,5-27,12.57h0c-2.26,2-4.24,6.66-7.19,7.54-3.74,1.1-4.17,7.26.14,7.48,2.7.13,3.69,4.72,5.49,7.68h0c4.4,8.74,14.93,14.39,29.12,14.39a46.29,46.29,0,0,0,5.23-.3A28.15,28.15,0,0,1,34.69,58Z"></path> <path class="c" d="M90.78,51.74,77.18,53.27,34.69,58a28.22,28.22,0,1,0,56.09-6.3Zm-53.16,8,20.93-2.35L45.7,73.46A25.53,25.53,0,0,1,37.63,59.7ZM47.73,75.08l14-17.54,2.51,22.31A25.52,25.52,0,0,1,47.73,75.08Zm19.09,4.48L64.31,57.25l17.54,14A25.52,25.52,0,0,1,66.82,79.56ZM83.47,69.21,67.36,56.36,88.29,54A25.53,25.53,0,0,1,83.47,69.21Z"></path> <path class="d" d="M67.36,56.36,83.47,69.21A25.53,25.53,0,0,0,88.29,54Zm11.42,3.15a1,1,0,0,1,1.36-.56l2.74,1.13A1,1,0,1,1,82.09,62l-2.74-1.13A1,1,0,0,1,78.78,59.51Z"></path> <path class="d" d="M64.31,57.25l2.51,22.31a25.52,25.52,0,0,0,15-8.32Zm7.46,12.86,1.34,2.65a1,1,0,1,1-1.85.94L69.91,71a1,1,0,0,1,1.85-.94Z"></path> <path class="d" d="M37.63,59.7A25.53,25.53,0,0,0,45.7,73.46L58.55,57.35Zm7.83,6.41a1,1,0,1,1-1.2-1.7l2.42-1.71a1,1,0,1,1,1.2,1.7Z"></path> <path class="d" d="M61.73,57.54l-14,17.54a25.52,25.52,0,0,0,16.51,4.77Zm-4,18.35a1,1,0,0,1-1.12-1.28l.72-2.88a1,1,0,0,1,2,.5l-.72,2.88A1,1,0,0,1,57.72,75.89Z"></path> <path class="e" d="M48.12,63a1,1,0,0,0-1.45-.25l-2.42,1.71a1,1,0,1,0,1.2,1.7l2.42-1.71A1,1,0,0,0,48.12,63Z"></path> <path class="e" d="M59.33,72.23a1,1,0,0,0-2-.5l-.72,2.88a1,1,0,1,0,2,.5Z"></path> <path class="e" d="M79.35,60.87,82.09,62a1,1,0,0,0,.79-1.92l-2.74-1.13a1,1,0,1,0-.79,1.92Z"></path> <path class="e" d="M70.37,69.65a1,1,0,0,0-.46,1.4l1.34,2.65a1,1,0,1,0,1.85-.94l-1.34-2.65A1,1,0,0,0,70.37,69.65Z"></path> </svg> 