<?xml version="1.0" encoding="UTF-8"?> <svg xmlns="http://www.w3.org/2000/svg" viewBox="0 0 100 100"> <defs> <style>.a{fill:#ffc7a1;}.b{fill:#4d964b;}.c{fill:#63a854;}.d{fill:#6ac35a;}</style> </defs> <title>Organic Stevia </title> <circle class="a" cx="50" cy="50" r="50"></circle> <path class="b" d="M51,56.54c2-9.6,7.44-13.69,11.86-17.45,12.57-10.66,19.49,1.43,21.24,7.55,1.19,4.17-5.78.55-15.1,5.2C55.45,58.58,51,56.54,51,56.54Z"></path> <path class="c" d="M54,53.21C44.56,47,35.39,46.09,27.88,48.53s-20,8.78-19.52,12.2,18.54,5.76,29.86,2.34S54,53.21,54,53.21Z"></path> <path class="c" d="M52.19,54.52c-3.46-7.49-2-13.08-1-17.92C54,22.86,65.71,20.1,67.2,22c2.24,2.83-1,9.66-4.68,17.66C57.12,51.26,52.19,54.52,52.19,54.52Z"></path> <path class="d" d="M53.28,53.82c2.61-5.94,1.2-10.07,0-13.61C51.78,35.7,45.7,29,43.74,29.68s-2.42,7.64.17,13.81C47.64,52.34,53.28,53.82,53.28,53.82Z"></path> <path class="d" d="M53.87,53.05c-9.22-.19-13.51,4-17.2,7.62-4.7,4.57-9.18,16.52-7,18.78s11.24-1,17.34-8C55.71,61.49,53.87,53.05,53.87,53.05Z"></path> <path class="d" d="M53.28,53.18c-.31,9.21,3.85,13.56,7.39,17.31,4.51,4.76,16.4,9.41,18.68,7.3s-.88-11.25-7.75-17.45C61.74,51.46,53.28,53.18,53.28,53.18Z"></path> </svg> 