<?xml version="1.0" encoding="UTF-8"?> <svg xmlns="http://www.w3.org/2000/svg" viewBox="0 0 100 100"> <defs> <style>.a{fill:#7a8aed;}.b{fill:#651bb2;}</style> </defs> <title>Glucosamine Sulphate </title> <circle class="a" cx="50" cy="50" r="50"></circle> <path class="b" d="M28.29,50.15A10.6,10.6,0,0,0,39,61a11,11,0,0,0,7-2.43V51.73H38v-5.4H52.14v14a16.56,16.56,0,0,1-13.23,6c-9.81,0-16.69-7.16-16.69-16.2S29,34,38.82,34a16.37,16.37,0,0,1,11.52,4.5l-3.91,4.14a10.79,10.79,0,0,0-7.65-3.24A10.51,10.51,0,0,0,28.29,50.15Z"></path> <path class="b" d="M59.47,57.49A10.36,10.36,0,0,0,66.9,61c2.7,0,4.59-1.66,4.59-4,0-4-5.85-4.54-10.08-7C58.93,48.53,57,46.37,57,42.82,57,37.19,62.13,34,67.35,34a14.58,14.58,0,0,1,9.13,3l-3.15,4.5a8.43,8.43,0,0,0-5.44-2.07c-2.29,0-4.86,1-4.86,3.42,0,5.08,14.53,3.51,14.53,14.13,0,5.58-5,9.45-10.66,9.45a16.8,16.8,0,0,1-11.38-4.72Z"></path> </svg> 