<?xml version="1.0" encoding="UTF-8"?> <svg xmlns="http://www.w3.org/2000/svg" xmlns:xlink="http://www.w3.org/1999/xlink" viewBox="0 0 100 102.12"> <defs> <style>.cls-1{fill:none;}.cls-2{clip-path:url(#clip-path);}.cls-3{fill:#63bbb1;}.cls-4{fill:#fbff50;}.cls-5{fill:#ffe000;}.cls-6{fill:#ffce00;}.cls-7{fill:#edd12e;}.cls-8{fill:#f9db5a;}.cls-9{fill:#f4df1c;}.cls-10{fill:#69af0e;}.cls-11{fill:#abd15d;}.cls-12{fill:#5c8e0e;}</style> <clipPath id="clip-path"> <circle class="cls-1" cx="50" cy="50" r="50"></circle> </clipPath> </defs> <title>organic-corn</title> <g id="Layer_2" data-name="Layer 2"> <g id="Layer_1-2" data-name="Layer 1"> <g class="cls-2"> <circle class="cls-3" cx="50" cy="50" r="50"></circle> <ellipse class="cls-4" cx="45.82" cy="69.98" rx="2.19" ry="1.5"></ellipse> <ellipse class="cls-5" cx="45.82" cy="72.72" rx="2.19" ry="1.5"></ellipse> <ellipse class="cls-6" cx="45.82" cy="75.45" rx="2.19" ry="1.5"></ellipse> <ellipse class="cls-4" cx="45.82" cy="78.19" rx="2.19" ry="1.5"></ellipse> <ellipse class="cls-4" cx="45.82" cy="80.92" rx="2.19" ry="1.5"></ellipse> <ellipse class="cls-4" cx="45.82" cy="83.66" rx="2.19" ry="1.5"></ellipse> <ellipse class="cls-4" cx="45.82" cy="86.39" rx="2.19" ry="1.5"></ellipse> <ellipse class="cls-5" cx="45.82" cy="64.26" rx="2.19" ry="1.5"></ellipse> <ellipse class="cls-6" cx="45.82" cy="61.26" rx="2.19" ry="1.5"></ellipse> <ellipse class="cls-5" cx="45.82" cy="58.26" rx="2.19" ry="1.5"></ellipse> <ellipse class="cls-4" cx="45.82" cy="55.26" rx="2.19" ry="1.5"></ellipse> <ellipse class="cls-6" cx="45.82" cy="52.26" rx="2.19" ry="1.5"></ellipse> <ellipse class="cls-6" cx="45.82" cy="49.26" rx="2.19" ry="1.5"></ellipse> <ellipse class="cls-5" cx="45.82" cy="46.26" rx="2.19" ry="1.5"></ellipse> <ellipse class="cls-7" cx="45.82" cy="43.26" rx="2.19" ry="1.5"></ellipse> <ellipse class="cls-8" cx="45.82" cy="40.26" rx="2.19" ry="1.5"></ellipse> <ellipse class="cls-4" cx="45.82" cy="37.26" rx="2.19" ry="1.5"></ellipse> <ellipse class="cls-4" cx="45.82" cy="34.26" rx="2.19" ry="1.5"></ellipse> <ellipse class="cls-6" cx="45.82" cy="31.26" rx="2.19" ry="1.5"></ellipse> <ellipse class="cls-9" cx="45.82" cy="28.26" rx="2.19" ry="1.5"></ellipse> <ellipse class="cls-6" cx="45.82" cy="67.26" rx="2.19" ry="1.5"></ellipse> <ellipse class="cls-9" cx="49.69" cy="71.44" rx="2.19" ry="1.5"></ellipse> <ellipse class="cls-4" cx="49.69" cy="74.17" rx="2.19" ry="1.5"></ellipse> <ellipse class="cls-6" cx="49.69" cy="76.91" rx="2.19" ry="1.5"></ellipse> <ellipse class="cls-4" cx="49.69" cy="79.64" rx="2.19" ry="1.5"></ellipse> <ellipse class="cls-6" cx="49.69" cy="82.38" rx="2.19" ry="1.5"></ellipse> <ellipse class="cls-4" cx="49.69" cy="85.11" rx="2.19" ry="1.5"></ellipse> <ellipse class="cls-4" cx="49.69" cy="87.84" rx="2.19" ry="1.5"></ellipse> <ellipse class="cls-4" cx="49.69" cy="91.04" rx="2.19" ry="1.5"></ellipse> <ellipse class="cls-4" cx="49.69" cy="94.04" rx="2.19" ry="1.5"></ellipse> <path class="cls-10" d="M53.68,99.87s11.5-1.53,16.64-4.18,4.33-27.82,4.33-27.82a93.89,93.89,0,0,1-7.75-9.75C55.39,62.37,53.68,99.87,53.68,99.87Z"></path> <path class="cls-11" d="M90.64,70a16,16,0,0,1-10.12-2.87c-4.78-3.66-4.93-9.28-8.87-10.25-1.57-.38-5.87,1-8.34,3.93,3.9-1.43,3.84-.52,5.84,1.2,2.89,2.49,3.22,5.1,4.38,6.63C75.13,70.76,79.25,72.5,90.64,70Z"></path> <ellipse class="cls-4" cx="49.69" cy="65.71" rx="2.19" ry="1.5"></ellipse> <ellipse class="cls-9" cx="49.69" cy="62.71" rx="2.19" ry="1.5"></ellipse> <ellipse class="cls-4" cx="49.69" cy="59.71" rx="2.19" ry="1.5"></ellipse> <ellipse class="cls-6" cx="49.69" cy="56.71" rx="2.19" ry="1.5"></ellipse> <ellipse class="cls-5" cx="49.69" cy="53.71" rx="2.19" ry="1.5"></ellipse> <ellipse class="cls-4" cx="49.69" cy="50.71" rx="2.19" ry="1.5"></ellipse> <ellipse class="cls-6" cx="49.69" cy="47.71" rx="2.19" ry="1.5"></ellipse> <ellipse class="cls-9" cx="49.69" cy="44.71" rx="2.19" ry="1.5"></ellipse> <ellipse class="cls-4" cx="49.69" cy="41.71" rx="2.19" ry="1.5"></ellipse> <ellipse class="cls-8" cx="49.69" cy="38.71" rx="2.19" ry="1.5"></ellipse> <ellipse class="cls-5" cx="49.69" cy="35.71" rx="2.19" ry="1.5"></ellipse> <ellipse class="cls-8" cx="49.69" cy="32.71" rx="2.19" ry="1.5"></ellipse> <ellipse class="cls-9" cx="49.69" cy="29.71" rx="2.19" ry="1.5"></ellipse> <ellipse class="cls-4" cx="49.69" cy="68.71" rx="2.19" ry="1.5"></ellipse> <ellipse class="cls-6" cx="53.68" cy="69.98" rx="2.19" ry="1.5"></ellipse> <ellipse class="cls-5" cx="53.68" cy="72.72" rx="2.19" ry="1.5"></ellipse> <ellipse class="cls-4" cx="53.68" cy="75.45" rx="2.19" ry="1.5"></ellipse> <ellipse class="cls-4" cx="53.68" cy="78.19" rx="2.19" ry="1.5"></ellipse> <ellipse class="cls-4" cx="53.68" cy="80.92" rx="2.19" ry="1.5"></ellipse> <ellipse class="cls-4" cx="53.68" cy="83.66" rx="2.19" ry="1.5"></ellipse> <ellipse class="cls-4" cx="53.68" cy="86.39" rx="2.19" ry="1.5"></ellipse> <ellipse class="cls-4" cx="53.68" cy="64.26" rx="2.19" ry="1.5"></ellipse> <ellipse class="cls-4" cx="53.68" cy="61.26" rx="2.19" ry="1.5"></ellipse> <ellipse class="cls-9" cx="53.68" cy="58.26" rx="2.19" ry="1.5"></ellipse> <ellipse class="cls-4" cx="53.68" cy="55.26" rx="2.19" ry="1.5"></ellipse> <ellipse class="cls-9" cx="53.68" cy="52.26" rx="2.19" ry="1.5"></ellipse> <ellipse class="cls-8" cx="53.68" cy="49.26" rx="2.19" ry="1.5"></ellipse> <ellipse class="cls-4" cx="53.68" cy="46.26" rx="2.19" ry="1.5"></ellipse> <ellipse class="cls-6" cx="53.68" cy="43.26" rx="2.19" ry="1.5"></ellipse> <ellipse class="cls-7" cx="53.68" cy="40.26" rx="2.19" ry="1.5"></ellipse> <ellipse class="cls-9" cx="53.68" cy="37.26" rx="2.19" ry="1.5"></ellipse> <ellipse class="cls-4" cx="53.68" cy="34.26" rx="2.19" ry="1.5"></ellipse> <ellipse class="cls-9" cx="53.68" cy="31.26" rx="2.19" ry="1.5"></ellipse> <ellipse class="cls-6" cx="53.68" cy="28.26" rx="2.19" ry="1.5"></ellipse> <ellipse class="cls-8" cx="49.69" cy="26.76" rx="2.19" ry="1.5"></ellipse> <ellipse class="cls-4" cx="45.82" cy="25.26" rx="2.19" ry="1.5"></ellipse> <ellipse class="cls-4" cx="44.8" cy="22.31" rx="2.19" ry="1.5"></ellipse> <ellipse class="cls-4" cx="43.4" cy="19.62" rx="1.95" ry="1.34"></ellipse> <ellipse class="cls-8" cx="47.5" cy="20.57" rx="1.34" ry="1.95" transform="translate(-3.13 31.32) rotate(-35.4)"></ellipse> <ellipse class="cls-5" cx="45.82" cy="17.56" rx="1.95" ry="1.34" transform="translate(-2.55 9.29) rotate(-11.27)"></ellipse> <ellipse class="cls-4" cx="47.5" cy="14.99" rx="1.95" ry="1.34" transform="translate(-2.01 9.57) rotate(-11.27)"></ellipse> <ellipse class="cls-4" cx="57.82" cy="20.81" rx="1.95" ry="1.34"></ellipse> <ellipse class="cls-5" cx="54.58" cy="19.18" rx="1.34" ry="1.95" transform="translate(24.24 68.44) rotate(-77.73)"></ellipse> <ellipse class="cls-8" cx="49.32" cy="17.56" rx="1.95" ry="1.34" transform="translate(18.98 60.22) rotate(-74.18)"></ellipse> <ellipse class="cls-4" cx="51.87" cy="17.46" rx="1.34" ry="1.95" transform="translate(-1.54 5.5) rotate(-5.98)"></ellipse> <ellipse class="cls-5" cx="53.24" cy="25.31" rx="2.19" ry="1.5"></ellipse> <ellipse class="cls-9" cx="49.69" cy="23.76" rx="2.19" ry="1.5"></ellipse> <ellipse class="cls-6" cx="54.84" cy="22.65" rx="2.19" ry="1.5"></ellipse> <ellipse class="cls-4" cx="51.05" cy="20.96" rx="2.19" ry="1.5"></ellipse> <ellipse class="cls-8" cx="53.68" cy="67.26" rx="2.19" ry="1.5"></ellipse> <ellipse class="cls-4" cx="57.41" cy="71.44" rx="2.19" ry="1.5"></ellipse> <ellipse class="cls-4" cx="57.41" cy="74.17" rx="2.19" ry="1.5"></ellipse> <ellipse class="cls-4" cx="57.41" cy="76.91" rx="2.19" ry="1.5"></ellipse> <ellipse class="cls-4" cx="57.41" cy="79.64" rx="2.19" ry="1.5"></ellipse> <ellipse class="cls-4" cx="57.41" cy="82.38" rx="2.19" ry="1.5"></ellipse> <ellipse class="cls-4" cx="57.41" cy="85.11" rx="2.19" ry="1.5"></ellipse> <ellipse class="cls-4" cx="57.41" cy="87.84" rx="2.19" ry="1.5"></ellipse> <ellipse class="cls-4" cx="57.41" cy="65.71" rx="2.19" ry="1.5"></ellipse> <ellipse class="cls-4" cx="57.41" cy="62.71" rx="2.19" ry="1.5"></ellipse> <ellipse class="cls-4" cx="57.41" cy="59.71" rx="2.19" ry="1.5"></ellipse> <ellipse class="cls-4" cx="57.41" cy="56.71" rx="2.19" ry="1.5"></ellipse> <ellipse class="cls-4" cx="57.41" cy="53.71" rx="2.19" ry="1.5"></ellipse> <ellipse class="cls-4" cx="57.41" cy="50.71" rx="2.19" ry="1.5"></ellipse> <ellipse class="cls-6" cx="57.41" cy="47.71" rx="2.19" ry="1.5"></ellipse> <ellipse class="cls-8" cx="57.41" cy="44.71" rx="2.19" ry="1.5"></ellipse> <ellipse class="cls-6" cx="57.41" cy="41.71" rx="2.19" ry="1.5"></ellipse> <ellipse class="cls-4" cx="57.41" cy="38.71" rx="2.19" ry="1.5"></ellipse> <ellipse class="cls-5" cx="57.41" cy="35.71" rx="2.19" ry="1.5"></ellipse> <ellipse class="cls-4" cx="57.41" cy="32.71" rx="2.19" ry="1.5"></ellipse> <ellipse class="cls-4" cx="57.41" cy="29.71" rx="2.19" ry="1.5"></ellipse> <ellipse class="cls-4" cx="57.41" cy="68.71" rx="2.19" ry="1.5"></ellipse> <ellipse class="cls-4" cx="61.12" cy="68.53" rx="2.19" ry="1.5"></ellipse> <ellipse class="cls-4" cx="61.12" cy="71.27" rx="2.19" ry="1.5"></ellipse> <ellipse class="cls-4" cx="61.12" cy="74" rx="2.19" ry="1.5"></ellipse> <ellipse class="cls-4" cx="61.12" cy="76.73" rx="2.19" ry="1.5"></ellipse> <ellipse class="cls-4" cx="61.12" cy="79.47" rx="2.19" ry="1.5"></ellipse> <ellipse class="cls-4" cx="61.12" cy="82.2" rx="2.19" ry="1.5"></ellipse> <ellipse class="cls-4" cx="61.12" cy="84.94" rx="2.19" ry="1.5"></ellipse> <ellipse class="cls-4" cx="61.12" cy="62.81" rx="2.19" ry="1.5"></ellipse> <ellipse class="cls-4" cx="61.12" cy="59.81" rx="2.19" ry="1.5"></ellipse> <ellipse class="cls-4" cx="61.12" cy="56.81" rx="2.19" ry="1.5"></ellipse> <ellipse class="cls-4" cx="61.12" cy="53.81" rx="2.19" ry="1.5"></ellipse> <ellipse class="cls-4" cx="61.12" cy="50.81" rx="2.19" ry="1.5"></ellipse> <ellipse class="cls-4" cx="61.12" cy="47.81" rx="2.19" ry="1.5"></ellipse> <ellipse class="cls-4" cx="61.12" cy="44.81" rx="2.19" ry="1.5"></ellipse> <ellipse class="cls-4" cx="61.12" cy="41.81" rx="2.19" ry="1.5"></ellipse> <ellipse class="cls-9" cx="61.12" cy="38.81" rx="2.19" ry="1.5"></ellipse> <ellipse class="cls-4" cx="61.12" cy="35.81" rx="2.19" ry="1.5"></ellipse> <ellipse class="cls-8" cx="61.12" cy="32.81" rx="2.19" ry="1.5"></ellipse> <ellipse class="cls-9" cx="61.12" cy="29.81" rx="2.19" ry="1.5"></ellipse> <ellipse class="cls-4" cx="61.12" cy="26.81" rx="2.19" ry="1.5"></ellipse> <ellipse class="cls-6" cx="57.41" cy="26.62" rx="2.19" ry="1.5"></ellipse> <ellipse class="cls-5" cx="58.93" cy="23.81" rx="1.5" ry="2.19" transform="translate(19.96 74.01) rotate(-74.18)"></ellipse> <ellipse class="cls-4" cx="61.12" cy="65.81" rx="2.19" ry="1.5"></ellipse> <ellipse class="cls-4" cx="41.99" cy="71.44" rx="2.19" ry="1.5"></ellipse> <ellipse class="cls-4" cx="41.99" cy="74.17" rx="2.19" ry="1.5"></ellipse> <ellipse class="cls-4" cx="41.99" cy="76.91" rx="2.19" ry="1.5"></ellipse> <ellipse class="cls-4" cx="41.99" cy="79.64" rx="2.19" ry="1.5"></ellipse> <ellipse class="cls-4" cx="41.99" cy="82.38" rx="2.19" ry="1.5"></ellipse> <ellipse class="cls-4" cx="41.99" cy="85.11" rx="2.19" ry="1.5"></ellipse> <ellipse class="cls-4" cx="41.99" cy="87.84" rx="2.19" ry="1.5"></ellipse> <ellipse class="cls-5" cx="41.99" cy="65.71" rx="2.19" ry="1.5"></ellipse> <ellipse class="cls-5" cx="41.99" cy="62.71" rx="2.19" ry="1.5"></ellipse> <ellipse class="cls-4" cx="41.99" cy="59.71" rx="2.19" ry="1.5"></ellipse> <ellipse class="cls-6" cx="41.99" cy="56.71" rx="2.19" ry="1.5"></ellipse> <ellipse class="cls-4" cx="41.99" cy="53.71" rx="2.19" ry="1.5"></ellipse> <ellipse class="cls-9" cx="41.99" cy="50.71" rx="2.19" ry="1.5"></ellipse> <ellipse class="cls-4" cx="41.99" cy="47.71" rx="2.19" ry="1.5"></ellipse> <ellipse class="cls-5" cx="41.99" cy="44.71" rx="2.19" ry="1.5"></ellipse> <ellipse class="cls-6" cx="41.99" cy="41.71" rx="2.19" ry="1.5"></ellipse> <ellipse class="cls-9" cx="41.99" cy="38.71" rx="2.19" ry="1.5"></ellipse> <ellipse class="cls-5" cx="41.99" cy="35.71" rx="2.19" ry="1.5"></ellipse> <ellipse class="cls-6" cx="41.99" cy="32.71" rx="2.19" ry="1.5"></ellipse> <ellipse class="cls-8" cx="41.99" cy="29.71" rx="2.19" ry="1.5"></ellipse> <ellipse class="cls-4" cx="41.99" cy="68.71" rx="2.19" ry="1.5"></ellipse> <ellipse class="cls-4" cx="37.97" cy="69.47" rx="2.19" ry="1.5"></ellipse> <ellipse class="cls-4" cx="37.97" cy="72.2" rx="2.19" ry="1.5"></ellipse> <ellipse class="cls-4" cx="37.97" cy="74.94" rx="2.19" ry="1.5"></ellipse> <ellipse class="cls-4" cx="37.97" cy="77.67" rx="2.19" ry="1.5"></ellipse> <ellipse class="cls-4" cx="37.97" cy="80.41" rx="2.19" ry="1.5"></ellipse> <ellipse class="cls-4" cx="37.97" cy="83.14" rx="2.19" ry="1.5"></ellipse> <ellipse class="cls-4" cx="37.97" cy="85.87" rx="2.19" ry="1.5"></ellipse> <ellipse class="cls-4" cx="37.97" cy="63.74" rx="2.19" ry="1.5"></ellipse> <ellipse class="cls-4" cx="37.97" cy="60.74" rx="2.19" ry="1.5"></ellipse> <ellipse class="cls-8" cx="37.97" cy="57.74" rx="2.19" ry="1.5"></ellipse> <ellipse class="cls-9" cx="37.97" cy="54.74" rx="2.19" ry="1.5"></ellipse> <ellipse class="cls-5" cx="37.97" cy="51.74" rx="2.19" ry="1.5"></ellipse> <ellipse class="cls-4" cx="37.97" cy="48.74" rx="2.19" ry="1.5"></ellipse> <ellipse class="cls-6" cx="37.97" cy="45.74" rx="2.19" ry="1.5"></ellipse> <ellipse class="cls-4" cx="37.97" cy="42.74" rx="2.19" ry="1.5"></ellipse> <ellipse class="cls-9" cx="37.97" cy="39.74" rx="2.19" ry="1.5"></ellipse> <ellipse class="cls-4" cx="37.97" cy="36.74" rx="2.19" ry="1.5"></ellipse> <ellipse class="cls-8" cx="37.97" cy="33.74" rx="2.19" ry="1.5"></ellipse> <ellipse class="cls-4" cx="37.97" cy="30.74" rx="2.19" ry="1.5"></ellipse> <ellipse class="cls-6" cx="37.97" cy="27.74" rx="2.19" ry="1.5"></ellipse> <ellipse class="cls-4" cx="41.99" cy="26.76" rx="2.19" ry="1.5"></ellipse> <ellipse class="cls-6" cx="42.3" cy="24.59" rx="1.88" ry="1.29"></ellipse> <ellipse class="cls-5" cx="40.42" cy="21.8" rx="2.19" ry="1.5"></ellipse> <ellipse class="cls-4" cx="38.49" cy="24.59" rx="2.19" ry="1.5"></ellipse> <ellipse class="cls-4" cx="37.97" cy="66.74" rx="2.19" ry="1.5"></ellipse> <path class="cls-12" d="M50.39,100l8.28-1s1.7-32.39,6.46-36.63L64.18,44c-9,0-6.54,14.64-8,15-1.8,13-1.38,11.88-3.4,17.38a44.5,44.5,0,0,0-3,13.24A42.78,42.78,0,0,0,50.39,100Z"></path> <path class="cls-11" d="M71.14,35c-3.75,3.77-6.64,4.06-9.68,7.13-2.77,2.8-5.72,8.38-5.48,18C59.48,51,68.39,43.74,69.27,43.37c3.4-1.41,6.66-1.41,8-4.12S76.57,34,77,27.62a27.94,27.94,0,0,1,.75-4.75A26.32,26.32,0,0,1,71.14,35Z"></path> <path class="cls-10" d="M53.68,99.87s11.5-1.53,16.64-4.18,4.33-27.82,4.33-27.82a93.89,93.89,0,0,1-7.75-9.75C55.39,62.37,53.68,99.87,53.68,99.87Z"></path> <path class="cls-11" d="M90.64,70a16,16,0,0,1-10.12-2.87c-4.78-3.66-4.93-9.28-8.87-10.25-1.57-.38-5.87,1-8.34,3.93,3.9-1.43,3.84-.52,5.84,1.2,2.89,2.49,3.22,5.1,4.38,6.63C75.13,70.76,79.25,72.5,90.64,70Z"></path> <path class="cls-12" d="M48.48,100.52S37,99,31.84,96.35s-4.33-27.82-4.33-27.82a93.89,93.89,0,0,0,7.75-9.75C46.76,63,48.48,100.52,48.48,100.52Z"></path> <path class="cls-10" d="M7.31,67.54A25,25,0,0,0,20,64.79c6.69-3.59,8.29-8.92,12.25-8.92,2.31,0,5.66,1.82,9.76,10.79-.48-.68-2.32-3.1-4.84-3a4.59,4.59,0,0,0-2.17.67,26.42,26.42,0,0,0-6.34,5C26.82,71.3,21.8,72.36,7.31,67.54Z"></path> <path class="cls-10" d="M30.58,83.33s6.32,11.59,6.73,17.19l15,1.6-7.42-15-4.08-5.92S30.84,81,30.58,83.33Z"></path> <path class="cls-11" d="M44.89,87.09c-2-5-4.84-9.58-8.91-10.22-9.5-1.5-12.58,6.08-14.17,8.67s-2.41,4-2.41,4,9.83-8.92,17.16-5.92,8.33,3.47,8.33,3.47"></path> </g> </g> </g> </svg> 