<?xml version="1.0" encoding="UTF-8"?> <svg xmlns="http://www.w3.org/2000/svg" viewBox="0 0 100 100"> <defs> <style>.a{fill:#63bbb1;}.b{fill:#572972;}</style> </defs> <title>Quercitin</title> <circle class="a" cx="50" cy="50" r="50"></circle> <path class="b" d="M49.77,34c9.72,0,16.42,7.24,16.42,16.2a16.4,16.4,0,0,1-3.33,10L68,65.93H61.11l-2-2.25a16.83,16.83,0,0,1-9.36,2.7c-9.72,0-16.42-7.25-16.42-16.2S40.05,34,49.77,34Zm0,27a10,10,0,0,0,5.54-1.62l-6.84-7.74,3.82-3.33,6.48,7.29a11.3,11.3,0,0,0,1.35-5.4c0-5.94-4.41-10.8-10.35-10.8s-10.35,4.86-10.35,10.8S43.84,61,49.77,61Z"></path> </svg> 