<svg width="28" height="28" viewBox="0 0 28 28" fill="none" xmlns="http://www.w3.org/2000/svg">
<rect width="28" height="28" rx="14" fill="#582288"/>
<path d="M22.8438 16.9375H22.4375V14.1953C22.4375 13.8906 22.2852 13.5605 22.0566 13.332L19.543 10.8184C19.3145 10.5898 18.9844 10.4375 18.6797 10.4375H17.5625V9.21875C17.5625 8.55859 17.0039 8 16.3438 8H8.21875C7.5332 8 7 8.55859 7 9.21875V17.3438C7 18.0293 7.5332 18.5625 8.21875 18.5625H8.625C8.625 19.9082 9.7168 21 11.0625 21C12.4082 21 13.5 19.9082 13.5 18.5625H16.75C16.75 19.9082 17.8418 21 19.1875 21C20.5332 21 21.625 19.9082 21.625 18.5625H22.8438C23.0469 18.5625 23.25 18.3848 23.25 18.1562V17.3438C23.25 17.1406 23.0469 16.9375 22.8438 16.9375ZM11.0625 19.7812C10.377 19.7812 9.84375 19.248 9.84375 18.5625C9.84375 17.9023 10.377 17.3438 11.0625 17.3438C11.7227 17.3438 12.2812 17.9023 12.2812 18.5625C12.2812 19.248 11.7227 19.7812 11.0625 19.7812ZM19.1875 19.7812C18.502 19.7812 17.9688 19.248 17.9688 18.5625C17.9688 17.9023 18.502 17.3438 19.1875 17.3438C19.8477 17.3438 20.4062 17.9023 20.4062 18.5625C20.4062 19.248 19.8477 19.7812 19.1875 19.7812ZM21.2188 14.5H17.5625V11.6562H18.6797L21.2188 14.1953V14.5Z" fill="white"/>
</svg>